<?xml version="1.0" encoding="UTF-8"?>
<svg version="1.1" xmlns="http://www.w3.org/2000/svg" width="2156" height="824">
<path d="M0 0 C5.76843758 2.26811912 7.83288467 7.54722444 10.375 12.8125 C14.11646354 20.53606662 19.42300485 25.83606526 25.57202148 31.72729492 C32.12144166 38.0160274 37.72163164 44.62432141 43 52 C43.43393066 52.60021973 43.86786133 53.20043945 44.31494141 53.81884766 C50.7001503 62.73656688 55.82267834 71.8583913 60 82 C60.3609375 82.85851562 60.721875 83.71703125 61.09375 84.6015625 C63.8518707 92.23747073 63.20368391 99.98843298 63 108 C70.59 108 78.18 108 86 108 C86 105.69 86 103.38 86 101 C90.53691271 78.01128586 102.2680632 59.95300771 118 43 C118.52851562 42.40574219 119.05703125 41.81148437 119.6015625 41.19921875 C126.31170479 33.99011716 135.10615309 27.44136846 143.89453125 23.00390625 C147.16891381 21.32605546 147.16891381 21.32605546 147.98046875 18.4140625 C148.04878906 17.49367188 148.11710937 16.57328125 148.1875 15.625 C148.80928738 10.76728608 149.57139199 7.70660326 153 4 C158.6910635 0.51567541 164.42500733 0.13591486 171 1 C175.8439909 3.11374148 178.21366798 5.99980409 180.3046875 10.7265625 C182.04522599 16.41753666 181.78483327 21.90805066 179.4375 27.375 C177.61409598 30.45979995 175.62143864 32.77232965 172.35546875 34.4296875 C169.15058143 35.20566353 166.28497149 34.85154976 163 34.625 C153.13728951 34.37235914 147.4314793 38.98497478 140 45 C139.38705078 45.48114258 138.77410156 45.96228516 138.14257812 46.45800781 C117.59801469 62.66538563 103.79326706 83.88296553 100 110 C100.98770386 110.0462854 100.98770386 110.0462854 101.99536133 110.09350586 C109.32750093 110.57938997 115.75968955 112.16697049 122.6875 114.5625 C123.73550781 114.91965088 124.78351563 115.27680176 125.86328125 115.64477539 C133.97412266 118.48394354 141.61237042 121.81665342 149.12890625 125.97021484 C151.0622691 127.03427075 153.01336979 128.05907771 154.96875 129.08203125 C168.56248661 136.31775247 184.63908713 146.0339904 193.8984375 158.5703125 C196.28087751 161.32473199 197.99005583 162.17162362 201.375 163.4375 C202.43074219 163.85128906 203.48648437 164.26507813 204.57421875 164.69140625 C205.70472656 165.12324219 206.83523438 165.55507812 208 166 C225.2222398 172.74240359 236.15924517 181.50527652 244.45703125 198.1796875 C248.78416715 208.34036235 249.56743743 218.19504402 249.5 229.125 C249.49890228 229.85544525 249.49780457 230.5858905 249.49667358 231.33847046 C249.44335976 243.68781378 248.08227071 254.35594867 242.76123047 265.62304688 C239.22213582 273.41908961 238.08398933 280.37769779 237.5 288.875 C234.17882802 326.68008582 221.40648847 357.92724464 195.31689453 385.5859375 C192.78051902 388.30946123 190.38848988 391.14708153 188 394 C188.45375 394.7425 188.9075 395.485 189.375 396.25 C191 399 191 399 191.9375 401.1875 C193.2991226 403.51026796 194.59828729 403.81622873 197 405 C198.50637376 406.07196485 199.99880371 407.16366541 201.48046875 408.26953125 C207.10264945 412.24835275 213.01598605 414.94912559 219.3125 417.6875 C237.31399535 425.77218011 254.03961147 435.40336318 270 447 C270.54978516 447.39815918 271.09957031 447.79631836 271.66601562 448.20654297 C283.41675086 456.76133647 294.43119259 466.03978964 305 476 C306.09828125 477.03447266 306.09828125 477.03447266 307.21875 478.08984375 C312.62978899 483.33983991 317.3270072 489.0927782 322 495 C323.22589844 496.51787109 323.22589844 496.51787109 324.4765625 498.06640625 C330.77047409 505.95088549 336.04260889 514.22264737 341 523 C341.53004639 523.92449951 341.53004639 523.92449951 342.07080078 524.86767578 C368.06451178 570.43763798 369.82825049 629.92346197 356.26220703 679.70751953 C351.07056277 697.35509845 342.65571483 714.71066728 331 729 C330.30583984 729.93585938 330.30583984 729.93585938 329.59765625 730.890625 C322.45497451 740.08294584 311.46005834 747.58453977 300 750 C295.64959153 750.27919325 291.2958948 750.27752091 286.9375 750.3125 C285.75994141 750.34150391 284.58238281 750.37050781 283.36914062 750.40039062 C269.16603 750.50257128 257.30721488 745.24089989 247 735.4375 C243.05730758 731.28474609 239.5846751 726.75951016 236.08618164 722.23339844 C229.99839318 713.51800438 229.99839318 713.51800438 222 707 C221.72994141 707.85867676 221.45988281 708.71735352 221.18164062 709.60205078 C210.11529233 741.42466144 190.54669583 769.35256991 164 790 C163.45102051 790.43070801 162.90204102 790.86141602 162.33642578 791.30517578 C133.27197166 813.95439235 100.04734244 826.23628203 63 824 C57.45649305 823.30235143 52.28661191 821.80764196 47 820 C45.91203125 819.63777344 44.8240625 819.27554688 43.703125 818.90234375 C16.65981225 809.17334709 -6.43762602 791.72394894 -27 772 C-27.82371094 771.21753906 -28.64742187 770.43507813 -29.49609375 769.62890625 C-35.15232674 764.12951854 -40.17392766 758.23639415 -45 752 C-45.804375 750.96230469 -46.60875 749.92460938 -47.4375 748.85546875 C-55.94610338 737.56623244 -62.59653121 725.04824778 -68 712 C-69.64706892 713.93646047 -71.29266772 715.87414091 -72.9375 717.8125 C-73.43894531 718.40200439 -73.94039062 718.99150879 -74.45703125 719.59887695 C-77.5450552 723.24092297 -80.54105795 726.93914873 -83.5 730.6875 C-93.04344794 742.35738465 -105.50964796 753.73425659 -121.13916016 755.31811523 C-124.68112757 755.47468451 -128.20470751 755.50760792 -131.75 755.5 C-132.9359375 755.52835938 -134.121875 755.55671875 -135.34375 755.5859375 C-148.1489437 755.61389644 -158.56103592 751.62991002 -168 743 C-169.03060547 742.071875 -169.03060547 742.071875 -170.08203125 741.125 C-196.37926945 716.18536301 -208.0668936 672.88666116 -209.14794922 637.76855469 C-210.09461186 598.72227274 -204.71304268 562.79985395 -186 528 C-185.68981934 527.40912598 -185.37963867 526.81825195 -185.06005859 526.20947266 C-178.09673547 512.99351988 -169.177383 501.07590304 -159.00390625 490.15625 C-157.14217233 488.15298076 -155.3826884 486.09426703 -153.625 484 C-128.21802927 454.98837896 -87.76030057 430.1179691 -52.07568359 416.67260742 C-45.82006948 414.24310148 -41.99935926 410.7419235 -38.1875 405.1875 C-37.465625 404.135625 -36.74375 403.08375 -36 402 C-36.69609375 401.45730469 -37.3921875 400.91460937 -38.109375 400.35546875 C-43.0910102 396.29610926 -47.73964659 391.87555704 -52.42236328 387.47802734 C-53.7727261 386.2129242 -55.13339519 384.95883728 -56.49609375 383.70703125 C-75.11657303 366.01591635 -86.85177343 341.14463489 -91 316 C-91.17926025 314.93056152 -91.35852051 313.86112305 -91.54321289 312.75927734 C-91.99983434 309.00136332 -91.99011981 305.55127124 -91.81640625 301.7734375 C-91.77449792 300.3972005 -91.7348584 299.02089289 -91.69726562 297.64453125 C-91.63606922 295.51704189 -91.56347662 293.39352358 -91.45141602 291.26806641 C-90.95693303 281.48118614 -92.21829206 274.94222119 -97.94189453 266.90283203 C-108.21603229 252.41178839 -110.15740267 234.94466331 -110.3125 217.6875 C-110.35600586 216.09131836 -110.35600586 216.09131836 -110.40039062 214.46289062 C-110.48920334 203.26565631 -107.38999782 194.41488803 -100 186 C-99.52175781 185.41734375 -99.04351563 184.8346875 -98.55078125 184.234375 C-91.06199734 175.85900961 -81.07876989 171.52987688 -70.56542969 168.35473633 C-59.15962301 164.87086514 -52.63925623 160.7808436 -44.73828125 151.95703125 C-34.82775725 141.01320797 -21.05650468 132.70913591 -8 126 C-7.14148438 125.5565625 -6.28296875 125.113125 -5.3984375 124.65625 C8.34458268 118.01875418 23.02294345 113.66493537 37.92895508 110.59765625 C38.80962646 110.41460937 39.69029785 110.2315625 40.59765625 110.04296875 C41.76566772 109.81130005 41.76566772 109.81130005 42.95727539 109.57495117 C45.28416731 109.03337591 45.28416731 109.03337591 48 107 C50.24953937 90.40964713 38.58129719 72.42370762 29.0625 59.6875 C24.34312861 53.51294601 19.38162278 47.61169215 14 42 C12.89785156 40.83791016 12.89785156 40.83791016 11.7734375 39.65234375 C7.93553267 35.49853299 7.93553267 35.49853299 3 33 C1.65922825 33.30202648 0.32638607 33.64001544 -1 34 C-8.18892899 34.67155386 -13.15292253 34.3853081 -19 30 C-23.23489542 25.34161504 -23.29060544 20.76945318 -23.2109375 14.72265625 C-22.80839243 9.52684308 -20.77220076 6.49715616 -16.9375 3.1875 C-11.51896589 -0.84757859 -6.63218854 -0.81942098 0 0 Z " fill="#000000" transform="translate(1020,0)"/>
<path d="M0 0 C5.31611954 0.8115517 8.66136624 4.41545197 11.94335938 8.42041016 C14.67816698 12.37146638 16.44695287 16.85085611 18.40234375 21.22265625 C23.12018677 31.41049714 28.54061679 40.39571034 35.27734375 49.34765625 C36.14379971 50.5308324 37.00969364 51.71442035 37.875 52.8984375 C40.25838511 56.12226258 42.73614044 59.24638511 45.27734375 62.34765625 C45.95796875 63.18039062 46.63859375 64.013125 47.33984375 64.87109375 C57.58498586 76.2416492 72.33287924 81.32452232 87.27734375 82.34765625 C111.31217861 83.55356939 132.21138437 80.99275158 154.27734375 71.34765625 C152.76541496 102.73321257 140.38951092 132.33944892 120.27734375 156.34765625 C119.79152832 156.9298291 119.30571289 157.51200195 118.80517578 158.11181641 C97.51183442 183.23269458 65.73116493 200.66110726 32.86360168 204.14091492 C28.01063748 204.52885313 23.15537632 204.55240446 18.2890625 204.5859375 C17.15064407 204.59400925 16.01222565 204.60208099 14.83930969 204.61039734 C12.4347991 204.6241725 10.0302695 204.63492374 7.62573242 204.64282227 C5.20477426 204.65428529 2.78384022 204.67464562 0.36303711 204.7043457 C-42.91794091 205.23385804 -82.01071464 190.86402124 -113.60595703 160.79907227 C-129.37036535 145.41284472 -140.13835173 126.62456334 -145.72265625 105.34765625 C-145.95597656 104.46207031 -146.18929687 103.57648438 -146.4296875 102.6640625 C-148.93134385 92.27948904 -148.83985004 81.96020496 -148.72265625 71.34765625 C-141.79714988 72.37500013 -135.10229829 73.65576336 -128.390625 75.6640625 C-104.14100639 81.87736156 -75.94519666 75.87286108 -54.72265625 63.34765625 C-51.16357885 60.89985196 -47.92140542 58.24720269 -44.72265625 55.34765625 C-43.58570313 54.33251953 -43.58570313 54.33251953 -42.42578125 53.296875 C-31.70807676 43.18897094 -25.04806229 30.62818572 -18.23925781 17.74975586 C-8.68223173 -0.32364883 -8.68223173 -0.32364883 0 0 Z " fill="#FEFE00" transform="translate(1089.72265625,214.65234375)"/>
<path d="M0 0 C5.56101393 0.53759406 9.71787541 2.59412686 14.5625 5.1875 C15.3867749 5.62602295 16.2110498 6.0645459 17.06030273 6.51635742 C27.14652065 12.00766895 36.58971809 18.43590424 46 25 C46.80920898 25.56154785 47.61841797 26.1230957 48.45214844 26.70166016 C66.79404379 39.48688545 83.61337481 53.81416719 98 71 C98.75539063 71.86625 99.51078125 72.7325 100.2890625 73.625 C127.47265126 105.26905379 139.53485124 143.98734917 139.3125 185.375 C139.30926727 186.4721785 139.30926727 186.4721785 139.30596924 187.59152222 C139.1561837 219.59237904 135.23603048 257.18613933 116 284 C115.11054687 285.25296875 115.11054687 285.25296875 114.203125 286.53125 C106.38059414 296.91957099 96.91981617 304.36280906 84 307 C68.00512003 308.55505778 56.32751625 301.44896629 44.32226562 291.62744141 C35.0466185 283.79269765 20.07635234 270.79525578 18.80021667 257.99627686 C18.7932844 252.30597552 19.59864667 247.11455462 20.86328125 241.578125 C21.25993456 239.74948707 21.65513788 237.92053417 22.04907227 236.09130859 C22.35955002 234.66416534 22.35955002 234.66416534 22.67630005 233.20819092 C31.7464443 191.03399975 34.89463429 145.90027805 29 103 C28.86577637 102.01547852 28.73155273 101.03095703 28.59326172 100.01660156 C23.95807794 67.07240502 16.44440908 34.35223421 1.23828125 4.546875 C0 2 0 2 0 0 Z " fill="#FDFDFD" transform="translate(1230,430)"/>
<path d="M0 0 C-1.40339937 7.9951237 -4.379682 14.866712 -7.6875 22.25 C-37.66492497 90.56572539 -48.37068019 181.93282222 -20.796875 253.10546875 C-19.44274393 258.02415073 -20.42743389 260.96289911 -22.86328125 265.375 C-23.66588129 266.59254745 -24.48313899 267.8005214 -25.3125 269 C-25.75327881 269.64718994 -26.19405762 270.29437988 -26.64819336 270.96118164 C-37.60220115 286.71437943 -51.50388285 303.47145807 -71 308 C-83.58523072 309.31818844 -93.1502967 306.89112059 -103.25 299.3125 C-120.35723121 284.63744703 -129.68202422 261.7692358 -135.3125 240.4375 C-135.54275879 239.56552979 -135.77301758 238.69355957 -136.01025391 237.79516602 C-136.73729771 234.87392215 -137.38333267 231.94661953 -138 229 C-138.13203827 228.37599304 -138.26407654 227.75198608 -138.40011597 227.10906982 C-140.86566974 215.12673407 -141.49974976 203.41359709 -141.44604492 191.19726562 C-141.43754699 188.26620785 -141.46641352 185.3371167 -141.49804688 182.40625 C-141.63219222 146.47765505 -129.72496769 113.90973707 -108.50097656 85.05126953 C-106.83819222 82.77886973 -105.21220574 80.48225262 -103.5859375 78.18359375 C-94.07585368 64.85827427 -83.87065588 54.1857733 -71 44 C-69.8436134 43.05514345 -68.68873983 42.108433 -67.53515625 41.16015625 C-58.68495699 33.91876315 -49.54318572 27.29550472 -40 21 C-38.8860083 20.2570166 -38.8860083 20.2570166 -37.74951172 19.49902344 C-8.38955357 0 -8.38955357 0 0 0 Z " fill="#FDFDFD" transform="translate(966,434)"/>
<path d="M0 0 C7.58118533 0.06716939 14.60436698 1.72497091 21.93450928 3.48797607 C25.9202651 4.44358485 29.91730452 5.34952059 33.9140625 6.2578125 C34.70237457 6.43764679 35.49068665 6.61748108 36.30288696 6.80276489 C51.51844638 10.24842439 66.80341425 12.52454304 82.3515625 13.7265625 C86.71398168 14.073434 91.05376433 14.51925416 95.39912415 15.03022766 C117.67109694 17.63910379 139.81882809 18.70908825 162.23042679 18.73122406 C164.22222116 18.7343078 166.21400379 18.74321817 168.20578003 18.7522583 C205.31554117 18.8665549 240.76763526 13.81566953 276.62182617 4.33154297 C284.39482474 2.29623098 291.94607219 0.60623691 300.015625 0.296875 C299.8100399 7.88848095 299.56217687 15.4776874 299.25666809 23.06591797 C299.11954592 26.48962826 298.99428791 29.91268541 298.90087891 33.33789062 C298.78871389 37.16002014 298.62647577 40.97709335 298.453125 44.796875 C298.42879395 45.97604492 298.40446289 47.15521484 298.37939453 48.37011719 C297.95194748 56.27730847 297.95194748 56.27730847 295.36523438 59.09399414 C293.29662562 60.4437861 291.3146303 61.40162619 289.015625 62.296875 C287.97664063 62.74933594 286.93765625 63.20179688 285.8671875 63.66796875 C245.18765258 77.11289978 201.67086556 80.88263229 159.04541016 80.68798828 C155.27131914 80.6708976 151.49786344 80.68108643 147.72379398 80.69831371 C127.63560839 80.77583623 107.96920035 79.68003141 88.015625 77.296875 C87.17598206 77.19934937 86.33633911 77.10182373 85.47125244 77.00134277 C81.15946164 76.49427071 76.86834926 75.89858664 72.578125 75.234375 C71.28519531 75.03739014 69.99226562 74.84040527 68.66015625 74.63745117 C48.78670843 71.50819698 29.10468829 67.10285023 9.45288086 62.82559204 C7.77519588 62.46164969 6.09623302 62.10356478 4.41625977 61.75033569 C3.59891357 61.57579865 2.78156738 61.4012616 1.93945312 61.22143555 C1.20795044 61.06732712 0.47644775 60.91321869 -0.27722168 60.75444031 C-1.984375 60.296875 -1.984375 60.296875 -2.984375 59.296875 C-3.16538428 57.81265792 -3.28266558 56.32058998 -3.37329102 54.828125 C-3.43327774 53.87623291 -3.49326447 52.92434082 -3.55506897 51.94360352 C-3.61552902 50.90518311 -3.67598907 49.8667627 -3.73828125 48.796875 C-3.80345444 47.73202881 -3.86862762 46.66718262 -3.93577576 45.57006836 C-4.07326153 43.30710033 -4.20844982 41.04399176 -4.34155273 38.78076172 C-4.54438317 35.3391561 -4.75497453 31.89809384 -4.96679688 28.45703125 C-5.09942474 26.25784058 -5.23160023 24.05862257 -5.36328125 21.859375 C-5.42576553 20.83714844 -5.48824982 19.81492187 -5.55262756 18.76171875 C-5.89182932 12.9301052 -6.13851215 7.13848722 -5.984375 1.296875 C-4.30213975 -0.38536025 -2.31397087 0.05436295 0 0 Z " fill="#FDFD00" transform="translate(948.984375,578.703125)"/>
<path d="M0 0 C7.69236649 5.76927487 12.38985444 15.73268616 17 24 C17.41040527 24.73041504 17.82081055 25.46083008 18.24365234 26.21337891 C23.23548022 35.16868352 27.71470369 44.24279901 31.5625 53.75 C32.06438843 54.98206177 32.06438843 54.98206177 32.57641602 56.23901367 C34.37832455 60.84410184 35.63109661 65.05540012 36 70 C34.1603008 71.8396992 31.16685616 71.7732546 28.69140625 72.22265625 C22.51220342 73.39866801 16.46385598 74.88173022 10.40234375 76.55859375 C9.5638237 76.78959778 8.72530365 77.02060181 7.8613739 77.25860596 C6.11737234 77.73908854 4.3733897 78.21963982 2.62942505 78.70025635 C-15.52808523 83.6730951 -33.23281592 87.2777864 -52 89 C-52.75301895 89.08253525 -53.5060379 89.1650705 -54.28187561 89.25010681 C-62.39257735 90.08893693 -70.48347095 90.19967315 -78.62890625 90.23828125 C-79.37072584 90.24235678 -80.11254543 90.2464323 -80.87684441 90.25063133 C-84.82585224 90.27139336 -88.77482665 90.28572094 -92.72387695 90.29516602 C-95.90864957 90.30389932 -99.09296764 90.32447975 -102.27758789 90.35668945 C-146.06270446 90.78935572 -192.2527119 85.9157627 -234 72 C-233.41820618 68.54729503 -232.54421796 65.70632981 -230.99389648 62.57128906 C-230.57933701 61.72560364 -230.16477753 60.87991821 -229.73765564 60.00860596 C-229.28669022 59.10342224 -228.83572479 58.19823853 -228.37109375 57.265625 C-227.9031691 56.31419617 -227.43524445 55.36276733 -226.95314026 54.38250732 C-225.45341361 51.33559678 -223.94581261 48.29266803 -222.4375 45.25 C-220.96025032 42.25869651 -219.48469517 39.26656762 -218.01040649 36.27380371 C-217.04641372 34.31789513 -216.08058713 32.36288925 -215.11288452 30.40881348 C-212.88401606 25.89514738 -210.69264395 21.37236598 -208.60595703 16.79101562 C-208.24236588 15.99588562 -207.87877472 15.20075562 -207.50416565 14.38153076 C-206.83534078 12.9082778 -206.17537159 11.43095972 -205.52598572 9.94903564 C-204.76046574 8.26250831 -203.88900063 6.6248302 -203 5 C-199.09815541 3.69938514 -197.81430581 4.60720436 -194.0390625 6.1328125 C-192.84410156 6.60976563 -191.64914062 7.08671875 -190.41796875 7.578125 C-189.15351527 8.09342974 -187.88919277 8.609056 -186.625 9.125 C-184.17986455 10.10721169 -181.73455275 11.0889845 -179.2890625 12.0703125 C-175.72438126 13.50204035 -172.16039345 14.93450505 -168.60400391 16.38671875 C-161.52721331 19.21363763 -154.59174323 21.25061356 -147.125 22.75 C-145.65546875 23.06130859 -145.65546875 23.06130859 -144.15625 23.37890625 C-135.25431782 25.23847429 -126.77894275 26.16569925 -117.6875 26.203125 C-116.60098145 26.20882507 -115.51446289 26.21452515 -114.39501953 26.22039795 C-112.09880538 26.22981878 -109.80257788 26.23637029 -107.50634766 26.24023438 C-104.03913941 26.24989099 -100.57253692 26.28092289 -97.10546875 26.3125 C-85.3347755 26.3693031 -74.42542524 26.08815364 -63 23 C-62.1445459 22.79149414 -61.2890918 22.58298828 -60.40771484 22.36816406 C-58.14740121 21.79965664 -55.9194501 21.17077224 -53.6875 20.5 C-52.87410156 20.25572266 -52.06070312 20.01144531 -51.22265625 19.75976562 C-36.19897301 15.03963828 -21.53078483 8.573293 -7.67382812 1.11914062 C-4.84245372 -0.06594158 -3.03381105 -0.34161312 0 0 Z " fill="#FDFD00" transform="translate(1197,405)"/>
<path d="M0 0 C13.83203171 12.83183189 20.80689303 31.67375533 21.515625 50.30859375 C21.95458318 74.69577673 15.61285379 96.85948804 -1.37890625 114.96875 C-17.61493364 131.01247249 -39.64722976 136.67309033 -61.9375 136.5625 C-63.72474487 136.55404053 -63.72474487 136.55404053 -65.5480957 136.54541016 C-74.29349066 136.42496495 -82.27324641 135.8003593 -90.6875 133.25 C-91.33187012 133.05664062 -91.97624023 132.86328125 -92.64013672 132.6640625 C-110.40523122 127.16261388 -124.3310386 116.91564575 -133.86328125 100.75390625 C-144.21727003 80.86626613 -146.14470301 56.35082259 -139.8828125 34.84375 C-133.30937628 15.0804777 -121.67728262 0.40487571 -103.44921875 -9.51171875 C-71.04239064 -25.2205231 -28.2929389 -23.82563276 0 0 Z M-86.04296875 21.0703125 C-96.13791464 30.42660382 -100.13851613 44.44219205 -100.890625 57.87890625 C-101.06469605 72.48636826 -99.21867918 85.52924221 -88.875 96.5625 C-85.14805678 100.08628278 -81.45387697 102.39803349 -76.6875 104.25 C-75.65625 104.6625 -74.625 105.075 -73.5625 105.5 C-62.32993986 107.6740439 -51.45904558 106.76977211 -41.5 101 C-30.55163329 93.53220057 -25.02594281 83.17098789 -22.21875 70.3046875 C-19.65723141 55.57595559 -19.68533504 38.23059095 -28.59765625 25.52734375 C-36.26916658 16.34047335 -44.36897621 12.72584735 -56.171875 11.41015625 C-67.29538125 10.90341874 -77.22069342 14.25243472 -86.04296875 21.0703125 Z " fill="#000000" transform="translate(1848.6875,602.75)"/>
<path d="M0 0 C15.54214315 16.36851477 18.3801646 36.85611968 18.0625 58.41796875 C17.45834958 76.57017162 11.15476498 93.02986071 -0.25 107.1875 C-0.73082031 107.83203125 -1.21164062 108.4765625 -1.70703125 109.140625 C-13.36733739 124.06044035 -33.17401828 130.5202092 -51.25 133.1875 C-78.19493663 134.79559014 -102.08313898 131.53271896 -123.875 114.5 C-138.37534859 101.3210261 -145.36392143 81.83019475 -146.453125 62.6015625 C-146.63805597 47.65297596 -144.50766471 33.88962791 -138.25 20.1875 C-137.84265625 19.26710938 -137.4353125 18.34671875 -137.015625 17.3984375 C-128.70810528 0.44132373 -113.59444987 -10.67393908 -96.15039062 -16.91650391 C-63.56095098 -27.9403323 -25.76693535 -24.13799116 0 0 Z M-92.96484375 22.18359375 C-103.38095444 36.6283274 -105.36769491 55.05028567 -102.94970703 72.33398438 C-100.81430198 82.74714431 -95.17301271 92.26290857 -86.25 98.1875 C-75.86770529 103.67779822 -64.3455712 105.12853318 -52.875 102.0625 C-42.33265854 98.30362203 -34.42917801 91.05288757 -29.5 81.0625 C-22.61691391 64.50220376 -21.45432223 44.9655293 -28.25 28.1875 C-33.14799393 19.04608276 -39.51529928 13.97194708 -48.98046875 10.05859375 C-64.86244808 5.82719424 -82.09716419 9.53351572 -92.96484375 22.18359375 Z " fill="#000000" transform="translate(648.25,595.8125)"/>
<path d="M0 0 C0.71800781 0.59296875 1.43601562 1.1859375 2.17578125 1.796875 C13.8726177 12.42623317 21.19014658 30.19761377 22.17700195 45.7980957 C22.70034079 70.37417099 19.9558083 91.1927897 4 111 C3.51917969 111.64453125 3.03835938 112.2890625 2.54296875 112.953125 C-9.10887105 127.86210734 -28.9285848 134.35143515 -47 137 C-73.41866909 138.41264859 -98.50405554 135.81371078 -119.6875 118.375 C-133.90094139 105.01281735 -141.26764501 85.79028807 -142.16015625 66.546875 C-142.4975915 51.58235502 -140.25691586 37.70048819 -134 24 C-133.59265625 23.07960938 -133.1853125 22.15921875 -132.765625 21.2109375 C-124.45810528 4.25382373 -109.34444987 -6.86143908 -91.90039062 -13.10400391 C-61.59154136 -23.35639109 -25.29143454 -21.06949396 0 0 Z M-89 26 C-99.14090236 41.13212773 -101.23515934 58.32563613 -98.69091797 76.16748047 C-96.58785069 86.57000864 -90.90471855 96.08755529 -82 102 C-71.61770529 107.49029822 -60.0955712 108.94103318 -48.625 105.875 C-38.08265854 102.11612203 -30.17917801 94.86538757 -25.25 84.875 C-18.31600468 68.19221919 -17.32979434 48.91232619 -24 32 C-28.81887125 22.59945583 -36.00187601 17.15863724 -45.80737305 13.61303711 C-49.59016142 12.55540638 -53.27850967 12.46803116 -57.1875 12.5 C-58.43152588 12.50966797 -58.43152588 12.50966797 -59.70068359 12.51953125 C-71.34710554 12.86227203 -81.47008907 16.88174848 -89 26 Z " fill="#000000" transform="translate(460,592)"/>
<path d="M0 0 C0.69294159 0.00082581 1.38588318 0.00165161 2.099823 0.00250244 C41.48489418 0.10989418 41.48489418 0.10989418 47.6875 6.3125 C47.91622967 8.0566342 48.08279516 9.80900058 48.22265625 11.5625 C48.30966797 12.64660156 48.39667969 13.73070312 48.48632812 14.84765625 C48.57333984 15.99105469 48.66035156 17.13445313 48.75 18.3125 C48.88631836 19.98119141 48.88631836 19.98119141 49.02539062 21.68359375 C49.51350271 27.91528043 49.78681502 34.06227443 49.6875 40.3125 C42.82763092 38.86831704 36.08817749 37.09046597 29.3359375 35.21484375 C16.32495888 31.99692506 -0.21713449 30.74828918 -12.3125 37.3125 C-12.99570313 37.67472656 -13.67890625 38.03695312 -14.3828125 38.41015625 C-19.05835394 41.29568915 -21.84766959 44.99889951 -23.3125 50.3125 C-23.97456349 57.91947442 -20.57431348 64.2557908 -15.91796875 70.046875 C-11.71792125 74.51274829 -6.77312768 78.11388552 -1.92675781 81.83886719 C3.20177432 85.82352892 7.92804191 90.14317483 12.63793945 94.60913086 C16.12441473 97.90210406 19.6845278 101.00712344 23.4375 104 C36.3252285 114.38966659 50.15968178 128.15397631 52.6875 145.3125 C53.61963184 160.83608034 50.80135546 174.39621015 40.5625 186.5 C27.06042902 200.71505162 7.97098149 205.90423978 -11.08984375 206.6328125 C-27.85316284 207.00779158 -43.87346448 205.53036627 -60.3125 202.3125 C-61.12879883 202.15281738 -61.94509766 201.99313477 -62.78613281 201.82861328 C-66.64507891 201.0583295 -70.48608857 200.23083874 -74.3125 199.3125 C-75.62532326 186.98725639 -76.70308776 174.69319085 -77.3125 162.3125 C-73.72771299 162.95630673 -70.39827611 163.89076506 -66.9609375 165.08984375 C-65.94386719 165.43853516 -64.92679688 165.78722656 -63.87890625 166.14648438 C-61.77343972 166.87450677 -59.66923854 167.60620035 -57.56640625 168.34179688 C-40.77257951 174.07704714 -19.94235344 177.30379185 -3.3125 169.3125 C2.04533381 166.23080887 4.70589627 162.57126288 6.31640625 156.609375 C7.38636494 149.98689382 5.41953916 144.78810691 1.6875 139.3125 C-0.26910948 137.0074717 -2.38404831 134.90693427 -4.5625 132.8125 C-5.14459229 132.24281494 -5.72668457 131.67312988 -6.32641602 131.08618164 C-10.52575988 127.00246427 -14.82866176 123.08209852 -19.3125 119.3125 C-21.56617772 117.40013324 -23.81507999 115.48221531 -26.0625 113.5625 C-26.66392822 113.04913086 -27.26535645 112.53576172 -27.88500977 112.00683594 C-32.40678934 108.13016116 -36.82957708 104.15915935 -41.18994141 100.10205078 C-43.86843976 97.61287745 -46.60260652 95.24510329 -49.4375 92.9375 C-58.81584053 84.75347841 -67.48257435 72.83209034 -69.3125 60.3125 C-70.11931555 44.99852023 -68.28982452 32.23667157 -58.34375 19.86328125 C-42.86906535 3.35134419 -21.61949021 -0.10918445 0 0 Z " fill="#000000" transform="translate(1518.3125,532.6875)"/>
<path d="M0 0 C0.43046104 4.1805857 0.85760419 8.36149341 1.28173828 12.54272461 C1.42634448 13.96371509 1.57184104 15.38461526 1.71826172 16.80541992 C1.92912811 18.85311903 2.13674139 20.90112649 2.34375 22.94921875 C2.53227539 24.79519653 2.53227539 24.79519653 2.72460938 26.6784668 C2.95657666 29.47626373 3.05585531 32.1955979 3 35 C-3.45297206 33.61722027 -9.84826529 32.05536951 -16.23828125 30.40917969 C-29.91673498 26.92922014 -47.53728942 24.94264124 -60.2265625 32.2890625 C-64.98012202 35.52148297 -67.79981091 38.68287636 -70 44 C-71.04313343 51.07012661 -68.94361207 56.12482283 -65 62 C-59.61482484 68.44388635 -53.17576705 73.53678013 -46.53881836 78.60424805 C-39.80324123 83.80301873 -33.72782761 89.67184477 -27.56835938 95.52880859 C-25.71780652 97.26471013 -23.811329 98.92312902 -21.875 100.5625 C-7.87638779 112.72322001 4.50656068 125.51583239 6.16015625 144.875 C6.7306183 158.36766769 2.22027595 170.57979752 -6 181.125 C-18.42092766 194.39033283 -36.75829508 200.08557084 -54.44873047 201.22143555 C-58.17692018 201.34033402 -61.89492072 201.37947449 -65.625 201.375 C-66.29175751 201.37545319 -66.95851501 201.37590637 -67.64547729 201.37637329 C-86.24353549 201.33964825 -103.82234006 197.89521284 -122 194 C-123.485 175.685 -123.485 175.685 -125 157 C-120.11905008 157.81349165 -116.24373343 158.98463597 -111.75 160.8125 C-99.150683 165.6597413 -87.04062807 168.32994389 -73.5 168.4375 C-72.60458496 168.44765137 -71.70916992 168.45780273 -70.78662109 168.46826172 C-61.48748181 168.3457002 -52.24231794 166.10757688 -45 160 C-40.80806507 155.4764996 -40.5577377 150.71872375 -40.56640625 144.74609375 C-42.9016901 129.95596272 -61.10727982 118.58556572 -71.8137207 109.45288086 C-76.19700777 105.70886057 -80.50292053 101.88855752 -84.76953125 98.01171875 C-86.84188166 96.14261111 -88.94519825 94.3178013 -91.0625 92.5 C-105.00533646 80.27190754 -115.11693879 67.97367132 -116.80078125 49.0546875 C-117.6130182 36.22194757 -113.34165947 24.97000404 -105.578125 14.83984375 C-81.20190945 -12.01092702 -31.9159862 -9.45749175 0 0 Z " fill="#000000" transform="translate(125,528)"/>
<path d="M0 0 C18.95892221 -0.47677763 39.52100605 3.13862204 54.203125 15.74609375 C66.27750489 27.27550868 72.60669127 42.52019083 73.515625 59.12109375 C73.45304265 74.24625844 73.45304265 74.24625844 71.515625 78.12109375 C36.205625 78.12109375 0.895625 78.12109375 -35.484375 78.12109375 C-33.4942022 102.0363033 -33.4942022 102.0363033 -19.71484375 119.578125 C-5.71539109 129.33353306 12.81341234 128.88813498 29.01953125 126.35546875 C37.77762908 124.76757038 46.36310799 122.48334633 54.86328125 119.85546875 C57.515625 119.12109375 57.515625 119.12109375 60.515625 119.12109375 C59.92431992 123.5039763 59.30319621 127.8812598 58.65405273 132.25585938 C58.43745996 133.74458996 58.22906744 135.23453755 58.02905273 136.72558594 C57.74008173 138.86896593 57.42189003 141.00623817 57.09765625 143.14453125 C56.91436768 144.43278809 56.7310791 145.72104492 56.54223633 147.04833984 C55.515625 150.12109375 55.515625 150.12109375 53.22583008 151.49023438 C51.88427856 151.80250977 51.88427856 151.80250977 50.515625 152.12109375 C49.72397949 152.31719238 48.93233398 152.51329102 48.11669922 152.71533203 C16.99386916 158.53407782 -21.30703124 161.5046166 -49.14453125 143.7734375 C-66.25322171 131.69167445 -73.39550469 114.49598927 -76.953125 94.484375 C-77.2283026 92.35557051 -77.39321438 90.26535011 -77.484375 88.12109375 C-77.52433594 87.31027344 -77.56429688 86.49945312 -77.60546875 85.6640625 C-78.1395409 64.20692862 -72.34559858 41.03745795 -57.984375 24.62109375 C-56.50328828 23.102416 -55.00456065 21.60063273 -53.484375 20.12109375 C-52.60072266 19.18910156 -52.60072266 19.18910156 -51.69921875 18.23828125 C-38.27278963 5.07742984 -18.10394576 0.88242503 0 0 Z M-24.16796875 37.93359375 C-29.86130526 44.9757257 -32.2136459 52.22599002 -33.484375 61.12109375 C-11.374375 61.12109375 10.735625 61.12109375 33.515625 61.12109375 C33.515625 50.4028961 32.613061 41.58469431 25.01953125 33.53515625 C17.72366822 26.62683329 9.84122812 25.52991501 0.015625 25.7734375 C-9.59576323 26.72814013 -17.62129354 30.88566498 -24.16796875 37.93359375 Z " fill="#000000" transform="translate(2082.484375,582.87890625)"/>
<path d="M0 0 C-0.33 11.88 -0.66 23.76 -1 36 C11.21 36 23.42 36 36 36 C35.67 45.57 35.34 55.14 35 65 C22.79 65 10.58 65 -2 65 C-3.60745624 95.8199293 -3.60745624 95.8199293 -4.29956055 126.67019653 C-4.30809142 128.04139294 -4.32164724 129.4125686 -4.34057617 130.78366089 C-4.52216687 141.7523704 -4.52216687 141.7523704 -1 152 C1.38788787 153.62332335 1.38788787 153.62332335 4 154 C4.99 154.33 5.98 154.66 7 155 C16.44724325 155.72563759 24.8739688 154.29861056 34 152 C33.33282518 158.71989482 32.31660866 165.30331179 31.0625 171.9375 C30.80823242 173.35385742 30.80823242 173.35385742 30.54882812 174.79882812 C30.37931641 175.69923828 30.20980469 176.59964844 30.03515625 177.52734375 C29.8844165 178.33937256 29.73367676 179.15140137 29.57836914 179.98803711 C29 182 29 182 27 184 C16.95464171 186.88522807 6.64580077 187.31041644 -3.75 187.375 C-5.41663696 187.39554443 -5.41663696 187.39554443 -7.11694336 187.41650391 C-18.48292284 187.35437179 -30.36203023 186.04585087 -39 178 C-51.00249834 163.56596105 -48.18777418 145.35663584 -47.16015625 127.83203125 C-47.07264196 126.30133855 -46.98536118 124.77063249 -46.89830017 123.23991394 C-46.71634273 120.05377545 -46.53204791 116.86778388 -46.34594727 113.68188477 C-46.10884906 109.62082594 -45.87696196 105.55949001 -45.6467371 101.49803638 C-45.46754858 98.3450409 -45.28594893 95.19218785 -45.10360527 92.0393734 C-45.0172468 90.54245426 -44.93153504 89.04549765 -44.84651375 87.54850197 C-44.72696407 85.45121504 -44.6042429 83.35413587 -44.48071289 81.25708008 C-44.41187393 80.06971756 -44.34303497 78.88235504 -44.27210999 77.65901184 C-43.95759349 73.42976764 -43.46833159 69.21498431 -43 65 C-49.93 65 -56.86 65 -64 65 C-63.67 55.43 -63.34 45.86 -63 36 C-52.11 35.505 -52.11 35.505 -41 35 C-40.34 25.76 -39.68 16.52 -39 7 C-34.2503233 5.9984544 -29.50020711 5.00000202 -24.74829102 4.00927734 C-23.13300623 3.67155217 -21.51809134 3.33205265 -19.90356445 2.99072266 C-17.57859486 2.49952181 -15.25235592 2.01478363 -12.92578125 1.53125 C-12.20787918 1.37813354 -11.48997711 1.22501709 -10.75032043 1.06726074 C-7.01594913 0.2979928 -3.85749736 0 0 0 Z " fill="#000000" transform="translate(1657,552)"/>
<path d="M0 0 C14.19 0 28.38 0 43 0 C42.58529551 10.6440819 42.15336006 21.26770745 41.36436462 31.89060974 C39.53398447 56.90228446 38.6595476 81.97294552 37.60314941 107.02618408 C37.38275625 112.23011018 37.15848552 117.43386608 36.93417931 122.63762474 C35.82367399 148.42192655 34.75550103 174.20261075 34 200 C19.48 200 4.96 200 -10 200 C-9.74605469 195.978125 -9.49210938 191.95625 -9.23046875 187.8125 C-5.88464439 134.36406602 -3.12668427 80.91147214 -1.70163345 27.37421799 C-1.64725735 25.3418193 -1.59127162 23.30947129 -1.53479004 21.27713013 C-1.46661421 18.79918418 -1.40202508 16.32113595 -1.3416748 13.84298706 C-1.31126099 12.74600494 -1.28084717 11.64902283 -1.24951172 10.51879883 C-1.22525116 9.56822098 -1.2009906 8.61764313 -1.17599487 7.63825989 C-1 5 -1 5 0 0 Z " fill="#000000" transform="translate(700,526)"/>
<path d="M0 0 C14.19 0 28.38 0 43 0 C42.74605469 4.08503906 42.49210937 8.17007813 42.23046875 12.37890625 C40.35696444 42.88762126 38.64571125 73.39723861 37.375 103.9375 C37.34470451 104.66562141 37.31440903 105.39374283 37.2831955 106.14392853 C35.98721102 137.42233799 34.9577538 168.70961985 34 200 C20.14 200 6.28 200 -8 200 C-8 193.85949364 -7.94505879 187.94316314 -7.44921875 181.859375 C-7.32733476 180.25395991 -7.20620293 178.6484876 -7.08569336 177.04296875 C-7.0209079 176.18880371 -6.95612244 175.33463867 -6.88937378 174.45458984 C-5.36176184 153.98851569 -4.31784554 133.50238164 -3.4375 113 C-3.4063485 112.27531776 -3.37519699 111.55063553 -3.3431015 110.80399323 C-1.7649428 73.88321416 -0.86601472 36.94316913 0 0 Z " fill="#000000" transform="translate(167,526)"/>
<path d="M0 0 C2.15524413 11.28453297 1.10005814 23.56720267 1 35 C-0.15886719 34.84144531 -1.31773438 34.68289063 -2.51171875 34.51953125 C-14.65831302 33.01556543 -26.27727609 32.68289897 -36.68359375 39.84765625 C-47.75804443 48.91455421 -51.50552553 61.17732814 -53.40893555 74.96142578 C-53.71312892 78.03551636 -53.9356759 81.10418889 -54.125 84.1875 C-54.20282715 85.36207764 -54.2806543 86.53665527 -54.36083984 87.74682617 C-55.60743515 108.79651574 -55.68452003 129.92095684 -56 151 C-69.86 151 -83.72 151 -98 151 C-98 131.51406099 -98 131.51406099 -97.37890625 122.67578125 C-97.24720731 120.65462407 -97.1155351 118.63346516 -96.98388672 116.61230469 C-96.88040924 115.07044495 -96.88040924 115.07044495 -96.77484131 113.49743652 C-95.47509047 94.00229469 -94.40292452 74.53634274 -94 55 C-93.97915344 53.99497437 -93.95830688 52.98994873 -93.93682861 51.95446777 C-93.59430447 35.30350171 -93.29008223 18.65195417 -93 2 C-79.47 2 -65.94 2 -52 2 C-52 7.61 -52 13.22 -52 19 C-51.01 17.824375 -50.02 16.64875 -49 15.4375 C-37.85857439 2.82245897 -17.24249045 -8.62124522 0 0 Z " fill="#000000" transform="translate(1992,585)"/>
<path d="M0 0 C-8.63118093 23.8198175 -37.41112116 42.81757728 -59 54 C-59.91604004 54.48146484 -59.91604004 54.48146484 -60.85058594 54.97265625 C-82.55769251 66.24478763 -108.4414506 73.30125336 -132.4296875 66.18359375 C-156.04358176 58.35535528 -176.96109318 44.78511043 -195.47363281 28.35449219 C-196.4970516 27.44631441 -197.52512424 26.54335591 -198.55761719 25.64550781 C-206.16304845 19.03063992 -212.91474481 12.05084647 -219 4 C-219 3.67 -219 3.34 -219 3 C-210.43899775 3.40766677 -202.42045192 4.87278588 -194.10253906 6.89642334 C-184.13659662 9.30824293 -174.17266797 11.5207212 -164 12.875 C-163.1970752 12.98247559 -162.39415039 13.08995117 -161.56689453 13.20068359 C-147.30199208 14.94830247 -133.03714936 15.20490367 -118.6875 15.1875 C-117.30195923 15.18659363 -117.30195923 15.18659363 -115.88842773 15.18566895 C-100.84306815 15.15904114 -85.95811067 14.76167782 -71 13 C-69.52176758 12.83056885 -69.52176758 12.83056885 -68.01367188 12.65771484 C-51.65841342 10.68844049 -35.7616804 6.9990014 -19.80566406 2.99780273 C-19.00986435 2.80095383 -18.21406464 2.60410492 -17.39414978 2.40129089 C-15.90192191 2.03137295 -14.41133335 1.65474734 -12.92286682 1.26997375 C-8.45712409 0.16626172 -4.5561916 -0.17382389 0 0 Z " fill="#FDFD00" transform="translate(1208,742)"/>
<path d="M0 0 C2.25293357 0.090435 4.50621778 0.1725392 6.75976562 0.24609375 C12.24341473 0.44306853 17.7138027 0.74282191 23.1875 1.125 C21.47627436 4.75901577 19.38816113 7.25137103 16.625 10.1875 C13.1921517 13.87863459 9.90811908 17.62910259 6.75 21.5625 C3.52806683 25.55724254 0.18092389 29.37052109 -3.3125 33.125 C-7.61749344 37.75214087 -11.65535225 42.53349366 -15.6171875 47.4609375 C-18.51054177 50.97208984 -21.57223621 54.31138334 -24.671875 57.640625 C-27.28051045 60.66816542 -29.52625796 63.84752015 -31.8125 67.125 C-24.27138102 78.21781164 -16.66879908 89.2530353 -8.8125 100.125 C-7.79551596 101.53511518 -6.77859197 102.94527366 -5.76171875 104.35546875 C-3.5709962 107.39206467 -1.37802637 110.42702179 0.81640625 113.4609375 C3.07814795 116.58833273 5.33570092 119.71868603 7.58984375 122.8515625 C8.70562578 124.40111611 9.82150973 125.95059635 10.9375 127.5 C11.47439453 128.24604492 12.01128906 128.99208984 12.56445312 129.76074219 C16.50881165 135.22608029 20.55175706 140.60662493 24.67578125 145.9375 C26.1875 148.125 26.1875 148.125 26.1875 150.125 C19.71718686 150.63616192 13.25210124 150.98373091 6.76611328 151.22363281 C4.56654651 151.32365712 2.3682922 151.45976891 0.17333984 151.63378906 C-14.42694988 152.76148068 -14.42694988 152.76148068 -20.8125 150.125 C-26.12421135 145.40938255 -28.92126583 139.0022282 -31.68551636 132.5846405 C-33.32448856 129.00758555 -35.44080728 125.84272451 -37.6875 122.625 C-38.50315834 121.42094814 -39.3183216 120.21656064 -40.1328125 119.01171875 C-46.88342777 109.18729949 -53.74990509 99.44243543 -60.64453125 89.71875 C-61.2694043 88.83405029 -61.89427734 87.94935059 -62.53808594 87.0378418 C-63.72368953 85.35949732 -64.91288769 83.68368363 -66.10644531 82.01098633 C-69.7161497 76.89438549 -72.88670768 71.66119525 -75.8125 66.125 C-69.49996938 58.19563592 -63.10046265 50.34072184 -56.6640625 42.51171875 C-54.37384108 39.72128652 -52.09206472 36.92414448 -49.8125 34.125 C-49.36535645 33.5789209 -48.91821289 33.0328418 -48.45751953 32.47021484 C-47.51739708 31.32031567 -46.58016494 30.16804672 -45.64599609 29.01330566 C-44.63597789 27.76900249 -43.6189132 26.53036347 -42.59274292 25.29934692 C-39.75715729 21.82707355 -37.34046217 18.41265543 -35.23071289 14.4519043 C-26.45018736 -1.24370563 -16.88228096 -1.18293765 0 0 Z " fill="#000000" transform="translate(280.8125,575.875)"/>
<path d="M0 0 C2.43684527 0.01005152 4.87369457 0.01917352 7.31054688 0.02734375 C13.22795359 0.04918119 19.14520757 0.08248608 25.0625 0.125 C24.27814575 1.55718058 23.49127809 2.98798483 22.70336914 4.41821289 C22.26545547 5.21514053 21.82754181 6.01206818 21.37635803 6.83314514 C19.60681998 9.91987467 17.6138245 12.69757035 15.5 15.5625 C11.7960581 20.6539503 8.22308406 25.81097832 4.75 31.0625 C-0.77902499 39.4121744 -6.3798822 47.71151335 -12 56 C-12.4449884 56.65640472 -12.88997681 57.31280945 -13.34844971 57.98910522 C-16.5435503 62.70191823 -19.74032376 67.41359497 -22.9375 72.125 C-23.8623107 73.48795165 -24.7871154 74.85090737 -25.71191406 76.21386719 C-32.91897104 86.8352731 -32.91897104 86.8352731 -36.07250977 91.47998047 C-36.45378021 92.04161896 -36.83505066 92.60325745 -37.22787476 93.18191528 C-38.2516802 94.69002273 -39.27561543 96.19804207 -40.29956055 97.70605469 C-41.51939044 99.50752653 -42.73068783 101.31478174 -43.9375 103.125 C-58.8167758 97.89214634 -70.47201556 82.51142592 -77.07421875 68.75683594 C-80.35651586 60.8752346 -80.53824279 53.4539992 -80.4375 45 C-80.45296875 43.69417969 -80.4684375 42.38835937 -80.484375 41.04296875 C-80.44106765 30.33522609 -78.36214466 22.81359435 -70.953125 14.96875 C-65.00102515 9.52419355 -58.37000623 6.6945458 -50.75 4.375 C-50.10434082 4.17624268 -49.45868164 3.97748535 -48.79345703 3.77270508 C-32.80935765 -0.72559454 -16.43623494 -0.11851173 0 0 Z " fill="#FCFCFC" transform="translate(1205.9375,178.875)"/>
<path d="M0 0 C8.58 0 17.16 0 26 0 C26 14.41666667 26 14.41666667 25.5 19.875 C24.90896463 27.26710436 24.90658633 34.58918211 25 42 C25.721875 41.2575 26.44375 40.515 27.1875 39.75 C36.03587191 31.09825858 45.38339508 28.61189001 57.5 28.5 C68.38817567 28.63266425 78.44121283 30.29536083 86.48046875 38.19921875 C91.90046485 44.62240178 92.18102071 51.1663265 92.15625 59.13671875 C92.15451782 60.05531174 92.15278564 60.97390472 92.15100098 61.92033386 C92.06284395 73.57489951 91.27048683 85.18711198 90.5 96.8125 C90.35485973 99.07743501 90.21032538 101.34240894 90.06640625 103.60742188 C89.71899306 109.07219149 89.35928019 114.53594711 89 120 C80.42 120 71.84 120 63 120 C63 108.78461538 63 108.78461538 63.4375 103.09375 C63.52813721 101.86342041 63.61877441 100.63309082 63.7121582 99.36547852 C63.85463989 97.45206665 63.85463989 97.45206665 64 95.5 C64.60798158 86.86158957 65.21492217 78.2244091 65.3125 69.5625 C65.33763672 67.58443359 65.33763672 67.58443359 65.36328125 65.56640625 C64.82719589 60.30354674 63.43355066 56.39679295 59.5625 52.625 C54.20494484 49.22752599 48.17416108 49.40681267 42 50 C36.84754128 51.38506955 32.23999079 53.63359045 29.0546875 58.08203125 C19.21652698 75.97290835 21.5168442 100.23750978 21 120 C12.42 120 3.84 120 -5 120 C-5 112.48153884 -4.92163441 105.14850908 -4.4140625 97.67578125 C-4.2871267 95.68337439 -4.16059955 93.69094147 -4.03442383 91.69848633 C-3.93407333 90.13875595 -3.93407333 90.13875595 -3.83169556 88.54751587 C-1.94690306 59.04841232 -0.91882298 29.54286135 0 0 Z " fill="#000000" transform="translate(396,392)"/>
<path d="M0 0 C1.21864746 0.34611328 1.21864746 0.34611328 2.46191406 0.69921875 C25.17175186 7.20495478 49.5660952 17.47534931 66 35 C66 35.66 66 36.32 66 37 C-3.3 37 -72.6 37 -144 37 C-130.91645966 17.37468949 -103.66687019 7.76267771 -82 1 C-81.18966309 0.7304248 -80.37932617 0.46084961 -79.54443359 0.18310547 C-55.69586428 -7.55038922 -23.95172486 -7.31770137 0 0 Z " fill="#FDFD00" transform="translate(1130,126)"/>
<path d="M0 0 C1.73987183 0.00193359 1.73987183 0.00193359 3.51489258 0.00390625 C16.69348196 0.14512749 29.68719945 1.63293326 42.75 3.3125 C39.9478081 8.45425777 36.82114336 13.05488641 33.25 17.6875 C28.99568084 23.28188064 24.84552302 28.93148923 20.8125 34.6875 C15.08268587 42.85996023 9.25209271 50.95564969 3.39550781 59.03759766 C1.7463372 61.31756379 0.10279572 63.60148234 -1.5390625 65.88671875 C-8.6570466 75.78691816 -15.89583882 85.58645621 -23.25 95.3125 C-32.97639323 93.23913398 -40.92186004 83.22617727 -46.25 75.3125 C-51.51481177 66.18770154 -52.49638808 59.26514166 -52.625 48.8125 C-52.66238281 47.69101563 -52.69976563 46.56953125 -52.73828125 45.4140625 C-52.86487349 33.23307562 -48.6735059 23.12661202 -40.25 14.3125 C-28.73470342 3.51690946 -15.40951398 -0.07156294 0 0 Z " fill="#FCFCFC" transform="translate(974.25,175.6875)"/>
<path d="M0 0 C6.80055731 5.74599773 10.1767546 12.2958888 12.96484375 20.66015625 C12.96484375 26.93015625 12.96484375 33.20015625 12.96484375 39.66015625 C-8.15515625 39.99015625 -29.27515625 40.32015625 -51.03515625 40.66015625 C-50.01973339 53.15227246 -50.01973339 53.15227246 -43.22265625 62.47265625 C-33.13468378 69.39577461 -23.29650674 69.23706183 -11.484375 67.33984375 C-7.33126241 66.5214501 -3.29224111 65.47264672 0.7578125 64.24609375 C2.96484375 63.66015625 2.96484375 63.66015625 5.96484375 63.66015625 C4.97484375 69.93015625 3.98484375 76.20015625 2.96484375 82.66015625 C-17.95199588 87.83313809 -40.78951369 89.89787457 -60.22265625 78.84765625 C-69.20560266 71.86092015 -74.63516794 63.66081466 -76.75390625 52.29296875 C-78.54587067 35.51819069 -75.89260472 19.45764649 -65.28515625 5.78515625 C-50.16278119 -10.44566515 -17.70604903 -13.03139594 0 0 Z M-42.91015625 13.34765625 C-46.60344256 16.89914099 -48.61751576 19.74566922 -50.03515625 24.66015625 C-50.03515625 25.98015625 -50.03515625 27.30015625 -50.03515625 28.66015625 C-37.16515625 28.66015625 -24.29515625 28.66015625 -11.03515625 28.66015625 C-11.03515625 20.42301807 -11.18354417 17.64755939 -16.66015625 11.91015625 C-25.08930707 5.47902636 -35.11964796 6.85556601 -42.91015625 13.34765625 Z " fill="#000000" transform="translate(580.03515625,428.33984375)"/>
<path d="M0 0 C0.94082932 0.00359528 1.88165863 0.00719055 2.85099792 0.01089478 C4.3288829 0.01067574 4.3288829 0.01067574 5.83662415 0.01045227 C9.11023623 0.01115185 12.3837922 0.01894632 15.65739441 0.02676392 C17.92040984 0.02862794 20.18342567 0.03005191 22.44644165 0.03105164 C28.41577764 0.03487807 34.38508948 0.04470942 40.35441589 0.05575562 C46.44043145 0.06596705 52.52645089 0.07054868 58.61247253 0.07559204 C70.56365676 0.08633157 82.51481667 0.10392938 94.46598816 0.12442017 C94.13598816 7.05442017 93.80598816 13.98442017 93.46598816 21.12442017 C81.25598816 20.79442017 69.04598816 20.46442017 56.46598816 20.12442017 C56.33321472 23.96582642 56.20044128 27.80723267 56.06364441 31.76504517 C55.45564008 48.98774062 54.73207438 66.20541879 54.00663757 83.42349243 C53.83164055 87.58158736 53.65765383 91.73972458 53.48356628 95.89785767 C53.14532751 103.97341879 52.80593135 112.04893061 52.46598816 120.12442017 C43.22598816 120.12442017 33.98598816 120.12442017 24.46598816 120.12442017 C24.46598816 108.87865151 24.46598816 108.87865151 24.72550964 104.70767212 C24.81080681 103.29574081 24.81080681 103.29574081 24.89782715 101.85528564 C24.96028122 100.86773285 25.02273529 99.88018005 25.08708191 98.86270142 C25.21888928 96.68326617 25.35055721 94.50382248 25.48210144 92.32437134 C25.55108643 91.19824432 25.62007141 90.07211731 25.69114685 88.91186523 C26.76608177 71.32065872 27.77464904 53.74467565 28.17472839 36.12368774 C28.21448792 34.45922607 28.21448792 34.45922607 28.25505066 32.76113892 C28.28139587 31.36447998 28.28139587 31.36447998 28.30827332 29.93960571 C28.49254669 26.65035452 29.00008838 23.3857186 29.46598816 20.12442017 C17.25598816 20.45442017 5.04598816 20.78442017 -7.53401184 21.12442017 C-7.55463684 17.84504517 -7.57526184 14.56567017 -7.59651184 11.18692017 C-7.60561584 10.15188354 -7.61471985 9.11684692 -7.62409973 8.05044556 C-7.62784607 6.83602783 -7.62784607 6.83602783 -7.63166809 5.59707642 C-7.63690491 4.76442261 -7.64214172 3.9317688 -7.64753723 3.07388306 C-7.38718935 -1.39682199 -3.61671308 0.00584086 0 0 Z " fill="#000000" transform="translate(290.5340118408203,391.8755798339844)"/>
<path d="M0 0 C1.43931117 0.45261358 2.87638999 0.91232979 4.3125 1.375 C5.11300781 1.63023437 5.91351562 1.88546875 6.73828125 2.1484375 C9 3 9 3 12 5 C11.76658555 15.50365032 4.02384607 23.61734731 -3.10498047 30.64575195 C-18.96432711 45.55314826 -38.72154399 53.5597878 -60.3515625 53.203125 C-73.22207622 52.77792378 -73.22207622 52.77792378 -75 51 C-75.25499568 46.58007482 -75.37241176 42.84104762 -73 39 C-69.17530754 37.78675133 -65.42631939 37.96769363 -61.46533203 38.06616211 C-44.62556074 38.46806198 -30.73595245 34.96024562 -17.6875 23.6875 C-10.36480726 16.68576945 -4.54735136 9.0509782 0 0 Z " fill="#1B1710" transform="translate(1158,342)"/>
</svg>
