<svg width="215" height="87" viewBox="0 0 215 87" fill="none" xmlns="http://www.w3.org/2000/svg">
<g clip-path="url(#clip0_1_781)">
<path d="M101.716 0.000193708C102.291 0.239667 102.497 0.797049 102.751 1.35297C103.124 2.16844 103.653 2.72803 104.266 3.35004C104.919 4.01402 105.478 4.71174 106.004 5.49049C106.047 5.55386 106.091 5.61723 106.135 5.68252C106.772 6.62408 107.283 7.58718 107.699 8.65796C107.735 8.74861 107.771 8.83925 107.809 8.93264C108.084 9.73886 108.019 10.5572 107.999 11.4031C108.756 11.4031 109.512 11.4031 110.292 11.4031C110.292 11.1592 110.292 10.9153 110.292 10.664C110.745 8.23682 111.914 6.33018 113.483 4.54024C113.536 4.4775 113.589 4.41476 113.643 4.35011C114.312 3.58896 115.189 2.89752 116.066 2.429C116.392 2.25185 116.392 2.25185 116.473 1.9444C116.48 1.84722 116.487 1.75004 116.494 1.64992C116.556 1.13703 116.632 0.813876 116.974 0.422524C117.541 0.05464 118.113 0.0145439 118.769 0.105776C119.252 0.32895 119.488 0.633668 119.696 1.13273C119.87 1.7336 119.844 2.3133 119.61 2.89052C119.428 3.21622 119.229 3.46038 118.904 3.63537C118.584 3.7173 118.298 3.67991 117.971 3.65599C116.987 3.62931 116.418 4.11633 115.677 4.75141C115.616 4.80221 115.555 4.85301 115.492 4.90535C113.443 6.61656 112.067 8.85677 111.688 11.6143C111.787 11.6192 111.787 11.6192 111.887 11.6241C112.618 11.6754 113.26 11.8431 113.951 12.096C114.055 12.1337 114.16 12.1714 114.267 12.2103C115.076 12.51 115.838 12.8619 116.588 13.3004C116.78 13.4128 116.975 13.521 117.17 13.629C118.525 14.393 120.129 15.4188 121.052 16.7424C121.29 17.0333 121.46 17.1227 121.798 17.2563C121.903 17.3 122.008 17.3437 122.117 17.3887C122.229 17.4343 122.342 17.4799 122.458 17.5269C124.176 18.2388 125.266 19.164 126.094 20.9245C126.525 21.9973 126.603 23.0378 126.597 24.1918C126.597 24.2689 126.596 24.346 126.596 24.4255C126.591 25.7294 126.455 26.8557 125.925 28.0453C125.572 28.8685 125.458 29.6032 125.4 30.5003C125.069 34.4919 123.795 37.7911 121.193 40.7113C120.941 40.9989 120.702 41.2985 120.464 41.5997C120.509 41.6781 120.554 41.7565 120.601 41.8373C120.763 42.1276 120.763 42.1276 120.856 42.3586C120.992 42.6038 121.122 42.6361 121.361 42.7611C121.512 42.8743 121.66 42.9896 121.808 43.1063C122.369 43.5264 122.958 43.8116 123.586 44.1007C125.382 44.9543 127.049 45.9712 128.641 47.1956C128.696 47.2376 128.751 47.2797 128.807 47.323C129.979 48.2262 131.077 49.2059 132.131 50.2575C132.241 50.3667 132.241 50.3667 132.353 50.4781C132.892 51.0324 133.361 51.6398 133.827 52.2635C133.949 52.4238 133.949 52.4238 134.074 52.5873C134.701 53.4198 135.227 54.2931 135.721 55.2199C135.774 55.3175 135.774 55.3175 135.828 55.417C138.42 60.2284 138.596 66.5091 137.243 71.7654C136.726 73.6287 135.886 75.4612 134.724 76.9699C134.655 77.0687 134.655 77.0687 134.584 77.1695C133.872 78.14 132.775 78.9321 131.633 79.1871C131.199 79.2166 130.765 79.2164 130.33 79.2201C130.213 79.2231 130.095 79.2262 129.974 79.2294C128.558 79.2402 127.375 78.6846 126.347 77.6495C125.954 77.2111 125.608 76.7333 125.259 76.2554C124.652 75.3352 124.652 75.3352 123.854 74.647C123.827 74.7377 123.801 74.8284 123.773 74.9218C122.669 78.2817 120.718 81.2304 118.071 83.4104C118.016 83.4559 117.961 83.5013 117.905 83.5482C115.006 85.9396 111.693 87.2363 107.999 87.0002C107.446 86.9265 106.93 86.7687 106.403 86.5779C106.295 86.5396 106.186 86.5014 106.074 86.462C103.377 85.4348 101.074 83.5924 99.0237 81.5099C98.9415 81.4273 98.8594 81.3447 98.7747 81.2596C98.2107 80.6789 97.7099 80.0567 97.2287 79.3983C97.1485 79.2887 97.0682 79.1791 96.9856 79.0662C96.1371 77.8743 95.4739 76.5526 94.9351 75.1749C94.7708 75.3794 94.6067 75.584 94.4427 75.7887C94.3927 75.8509 94.3427 75.9131 94.2912 75.9773C93.9832 76.3618 93.6845 76.7523 93.3894 77.148C92.4377 78.3802 91.1945 79.5814 89.6359 79.7486C89.2827 79.7651 88.9314 79.7686 88.5778 79.7678C88.4596 79.7708 88.3413 79.7738 88.2194 79.7769C86.9425 79.7798 85.9042 79.3592 84.9629 78.448C84.8601 78.35 84.8601 78.35 84.7553 78.25C82.1329 75.6169 80.9674 71.0453 80.8596 67.3374C80.7652 63.2148 81.3018 59.422 83.1679 55.7478C83.1988 55.6854 83.2298 55.623 83.2616 55.5587C83.956 54.1633 84.8455 52.9051 85.86 51.7521C86.0457 51.5406 86.2211 51.3233 86.3964 51.1021C88.93 48.039 92.9645 45.4131 96.5231 43.9935C97.1469 43.737 97.5279 43.3674 97.908 42.7809C97.98 42.6699 98.052 42.5588 98.1262 42.4444C98.0568 42.3871 97.9873 42.3298 97.9158 42.2707C97.419 41.8421 96.9555 41.3754 96.4885 40.9111C96.3538 40.7775 96.2182 40.6451 96.0823 40.513C94.2254 38.6451 93.0551 36.0191 92.6415 33.3643C92.6236 33.2514 92.6057 33.1384 92.5873 33.0221C92.5418 32.6253 92.5427 32.2611 92.5601 31.8622C92.5642 31.7169 92.5682 31.5716 92.5719 31.4263C92.578 31.2016 92.5853 30.9774 92.5965 30.753C92.6458 29.7197 92.52 29.0293 91.9492 28.1805C90.9247 26.6505 90.7311 24.8062 90.7156 22.9842C90.7113 22.8157 90.7113 22.8157 90.7068 22.6437C90.698 21.4615 91.007 20.527 91.744 19.6385C91.7917 19.577 91.8394 19.5155 91.8885 19.4521C92.6353 18.5678 93.6308 18.1108 94.6792 17.7755C95.8167 17.4077 96.4669 16.9758 97.2548 16.0442C98.2431 14.8887 99.6164 14.012 100.918 13.3036C101.004 13.2568 101.09 13.21 101.178 13.1617C102.548 12.4609 104.012 12.0012 105.498 11.6774C105.586 11.658 105.674 11.6387 105.765 11.6188C105.881 11.5943 105.881 11.5943 106 11.5694C106.232 11.5122 106.232 11.5122 106.503 11.2975C106.727 9.54587 105.564 7.64687 104.614 6.30215C104.144 5.65023 103.649 5.02716 103.112 4.43466C103.002 4.31196 103.002 4.31196 102.89 4.18679C102.507 3.74822 102.507 3.74822 102.015 3.48442C101.882 3.51631 101.749 3.55199 101.616 3.59C100.9 3.6609 100.405 3.63068 99.8214 3.16767C99.3991 2.67583 99.3936 2.19309 99.4015 1.55465C99.4417 1.00606 99.6447 0.68618 100.027 0.336738C100.567 -0.0892958 101.055 -0.0863228 101.716 0.000193708Z" fill="black"/>
<path d="M108.669 22.6634C109.199 22.749 109.533 23.1295 109.86 23.5524C110.133 23.9696 110.309 24.4425 110.504 24.9041C110.975 25.9798 111.515 26.9284 112.187 27.8736C112.273 27.9985 112.36 28.1235 112.446 28.2485C112.684 28.5889 112.931 28.9187 113.184 29.2462C113.252 29.3341 113.32 29.422 113.39 29.5126C114.411 30.7131 115.882 31.2498 117.372 31.3578C119.769 31.4851 121.853 31.2148 124.054 30.1964C123.903 33.5102 122.669 36.6361 120.663 39.1709C120.615 39.2324 120.566 39.2939 120.516 39.3572C118.393 42.0095 115.224 43.8497 111.946 44.2171C111.462 44.258 110.978 44.2605 110.493 44.264C110.379 44.2649 110.266 44.2658 110.149 44.2666C109.909 44.2681 109.669 44.2692 109.429 44.2701C109.188 44.2713 108.947 44.2734 108.705 44.2766C104.389 44.3325 100.491 42.8153 97.34 39.6409C95.768 38.0164 94.6942 36.0327 94.1373 33.7862C94.114 33.6927 94.0908 33.5992 94.0668 33.5029C93.8173 32.4065 93.8264 31.3169 93.8381 30.1964C94.5287 30.3049 95.1964 30.4401 95.8657 30.6522C98.2839 31.3082 101.096 30.6742 103.212 29.3518C103.567 29.0933 103.89 28.8132 104.209 28.5071C104.323 28.3999 104.323 28.3999 104.438 28.2906C105.507 27.2234 106.171 25.8972 106.85 24.5374C107.803 22.6292 107.803 22.6292 108.669 22.6634Z" fill="#FEFE00"/>
<path d="M122.658 45.4004C123.212 45.4572 123.627 45.6743 124.11 45.9481C124.192 45.9944 124.274 46.0407 124.359 46.0884C125.365 46.6682 126.306 47.3469 127.245 48.04C127.326 48.0992 127.406 48.1585 127.489 48.2196C129.319 49.5695 130.996 51.0822 132.43 52.8967C132.506 52.9882 132.581 53.0797 132.659 53.1739C135.369 56.515 136.572 60.6029 136.55 64.9728C136.55 65.0886 136.55 65.0886 136.55 65.2068C136.535 68.5855 136.144 72.5548 134.225 75.3858C134.137 75.5181 134.137 75.5181 134.046 75.6531C133.266 76.7499 132.323 77.5358 131.034 77.8142C129.439 77.9784 128.275 77.2281 127.078 76.1912C126.153 75.3639 124.66 73.9916 124.532 72.6403C124.532 72.0395 124.612 71.4914 124.738 70.9068C124.778 70.7137 124.817 70.5206 124.856 70.3275C124.887 70.1768 124.887 70.1768 124.919 70.0231C125.823 65.5702 126.137 60.8049 125.55 56.2754C125.536 56.1714 125.523 56.0675 125.509 55.9604C125.047 52.4821 124.298 49.0274 122.781 45.8805C122.658 45.6116 122.658 45.6116 122.658 45.4004Z" fill="#FDFDFD"/>
<path d="M96.3312 45.8228C96.1912 46.6669 95.8944 47.3924 95.5646 48.172C92.5752 55.3849 91.5076 65.0317 94.2573 72.5463C94.3923 73.0656 94.2941 73.3759 94.0512 73.8417C93.9712 73.9703 93.8897 74.0978 93.807 74.2245C93.763 74.2928 93.7191 74.3611 93.6738 74.4315C92.5814 76.0948 91.1951 77.864 89.2509 78.3422C87.9959 78.4813 87.0421 78.2251 86.0349 77.4249C84.329 75.8755 83.3991 73.461 82.8376 71.2088C82.8146 71.1167 82.7917 71.0246 82.768 70.9298C82.6955 70.6213 82.6311 70.3123 82.5696 70.0012C82.5564 69.9353 82.5433 69.8694 82.5297 69.8015C82.2838 68.5364 82.2206 67.2997 82.2259 66.0098C82.2268 65.7004 82.2239 65.3911 82.2208 65.0817C82.2074 61.2882 83.3948 57.8496 85.5113 54.8027C85.6771 54.5628 85.8392 54.3203 86.0014 54.0776C86.9498 52.6707 87.9675 51.5438 89.2509 50.4684C89.3663 50.3686 89.4814 50.2687 89.5965 50.1685C90.479 49.404 91.3906 48.7047 92.3423 48.04C92.4534 47.9615 92.4534 47.9615 92.5667 47.8815C95.4946 45.8228 95.4946 45.8228 96.3312 45.8228Z" fill="#FDFDFD"/>
<path d="M94.6344 61.1011C95.3904 61.1082 96.0907 61.2832 96.8217 61.4694C97.2192 61.5702 97.6178 61.6659 98.0163 61.7618C98.0949 61.7808 98.1735 61.7998 98.2545 61.8193C99.7719 62.1831 101.296 62.4235 102.847 62.5504C103.282 62.587 103.714 62.6341 104.148 62.688C106.369 62.9635 108.577 63.0764 110.812 63.0788C111.011 63.0791 111.209 63.08 111.408 63.081C115.109 63.0931 118.644 62.5598 122.22 61.5584C122.995 61.3435 123.748 61.1651 124.552 61.1324C124.532 61.934 124.507 62.7353 124.477 63.5364C124.463 63.8979 124.451 64.2593 124.441 64.621C124.43 65.0245 124.414 65.4275 124.397 65.8309C124.394 65.9553 124.392 66.0798 124.389 66.2081C124.347 67.043 124.347 67.043 124.089 67.3404C123.882 67.4829 123.685 67.584 123.455 67.6785C123.352 67.7263 123.248 67.7741 123.142 67.8233C119.085 69.2429 114.745 69.6409 110.495 69.6203C110.118 69.6185 109.742 69.6196 109.366 69.6214C107.362 69.6296 105.401 69.5139 103.411 69.2623C103.328 69.252 103.244 69.2417 103.158 69.2311C102.728 69.1775 102.3 69.1146 101.872 69.0445C101.743 69.0237 101.614 69.0029 101.481 68.9815C99.4994 68.6511 97.5367 68.186 95.577 67.7344C95.4097 67.6959 95.2423 67.6581 95.0747 67.6208C94.9932 67.6024 94.9117 67.584 94.8278 67.565C94.7548 67.5487 94.6819 67.5325 94.6067 67.5157C94.4365 67.4674 94.4365 67.4674 94.3367 67.3618C94.3187 67.2051 94.307 67.0476 94.298 66.89C94.292 66.7895 94.286 66.689 94.2798 66.5854C94.2738 66.4758 94.2678 66.3661 94.2616 66.2532C94.2551 66.1408 94.2486 66.0283 94.2419 65.9125C94.2282 65.6736 94.2147 65.4346 94.2014 65.1957C94.1812 64.8323 94.1602 64.469 94.1391 64.1056C94.1258 63.8735 94.1126 63.6413 94.0995 63.4091C94.0933 63.3011 94.0871 63.1932 94.0806 63.082C94.0468 62.4663 94.0222 61.8548 94.0376 61.238C94.2053 61.0604 94.4036 61.1068 94.6344 61.1011Z" fill="#FDFD00"/>
<path d="M119.367 42.761C120.134 43.3701 120.602 44.4221 121.062 45.2949C121.103 45.3721 121.144 45.4492 121.186 45.5286C121.684 46.4742 122.131 47.4322 122.514 48.436C122.564 48.5661 122.564 48.5661 122.615 48.6988C122.795 49.185 122.92 49.6297 122.957 50.1517C122.773 50.346 122.475 50.339 122.228 50.3864C121.612 50.5106 121.009 50.6672 120.404 50.8442C120.321 50.8686 120.237 50.893 120.151 50.9181C119.977 50.9688 119.803 51.0196 119.629 51.0703C117.818 51.5954 116.053 51.976 114.181 52.1578C114.106 52.1665 114.031 52.1752 113.954 52.1842C113.145 52.2728 112.338 52.2845 111.526 52.2885C111.452 52.289 111.378 52.2894 111.302 52.2898C110.908 52.292 110.514 52.2936 110.12 52.2945C109.803 52.2955 109.485 52.2976 109.168 52.301C104.801 52.3467 100.195 51.8322 96.032 50.3629C96.09 49.9984 96.1772 49.6984 96.3318 49.3674C96.3731 49.2781 96.4145 49.1888 96.4571 49.0968C96.502 49.0012 96.547 48.9057 96.5933 48.8072C96.64 48.7068 96.6867 48.6063 96.7347 48.5028C96.8843 48.1811 97.0346 47.8598 97.185 47.5386C97.3324 47.2227 97.4795 46.9068 97.6265 46.5908C97.7227 46.3843 97.819 46.1779 97.9155 45.9716C98.1377 45.495 98.3563 45.0175 98.5644 44.5338C98.6006 44.4498 98.6369 44.3659 98.6742 44.2794C98.7409 44.1238 98.8067 43.9679 98.8715 43.8114C98.9478 43.6333 99.0347 43.4604 99.1234 43.2889C99.5125 43.1515 99.6405 43.2474 100.017 43.4085C100.136 43.4588 100.255 43.5092 100.378 43.5611C100.504 43.6155 100.63 43.6699 100.756 43.7244C101 43.8281 101.244 43.9318 101.488 44.0354C101.843 44.1865 102.199 44.3378 102.553 44.4911C103.259 44.7896 103.951 45.0046 104.695 45.163C104.842 45.1958 104.842 45.1958 104.991 45.2294C105.879 45.4257 106.724 45.5236 107.631 45.5275C107.739 45.5281 107.848 45.5288 107.959 45.5294C108.188 45.5304 108.417 45.5311 108.646 45.5315C108.992 45.5325 109.338 45.5358 109.683 45.5391C110.857 45.5451 111.945 45.5154 113.084 45.1894C113.17 45.1673 113.255 45.1453 113.343 45.1226C113.568 45.0626 113.791 44.9962 114.013 44.9254C114.094 44.8996 114.175 44.8738 114.259 44.8472C115.757 44.3489 117.22 43.6661 118.602 42.8791C118.884 42.754 119.064 42.7249 119.367 42.761Z" fill="#FDFD00"/>
<path d="M184.354 63.6399C185.734 64.9947 186.429 66.9841 186.5 68.9516C186.544 71.5265 185.911 73.8666 184.217 75.7786C182.598 77.4725 180.401 78.0702 178.178 78.0585C178 78.0576 178 78.0576 177.818 78.0567C176.946 78.044 176.15 77.978 175.311 77.7088C175.247 77.6883 175.182 77.6679 175.116 77.6469C173.344 77.066 171.956 75.9841 171.005 74.2777C169.973 72.178 169.78 69.5896 170.405 67.3188C171.06 65.2321 172.22 63.6826 174.038 62.6356C177.27 60.977 181.533 61.1243 184.354 63.6399ZM175.774 65.8645C174.767 66.8524 174.368 68.3322 174.293 69.7509C174.276 71.2932 174.46 72.6703 175.492 73.8352C175.863 74.2073 176.232 74.4513 176.707 74.6469C176.81 74.6904 176.913 74.734 177.018 74.7788C178.139 75.0084 179.223 74.9129 180.216 74.3037C181.308 73.5153 181.859 72.4213 182.139 71.0628C182.394 69.5077 182.391 67.6764 181.502 66.3351C180.737 65.3652 179.93 64.9835 178.753 64.8446C177.643 64.7911 176.654 65.1447 175.774 65.8645Z" fill="white"/>
<path d="M64.6446 62.9075C66.1945 64.6357 66.4775 66.7989 66.4458 69.0754C66.3856 70.992 65.757 72.7298 64.6197 74.2246C64.5717 74.2927 64.5238 74.3607 64.4744 74.4308C63.3116 76.0061 61.3364 76.6882 59.5339 76.9698C56.8469 77.1396 54.4647 76.7951 52.2916 74.9967C50.8456 73.6052 50.1487 71.5473 50.04 69.5171C50.0216 67.9388 50.234 66.4857 50.8581 65.039C50.8987 64.9418 50.9393 64.8446 50.9812 64.7445C51.8096 62.9541 53.3168 61.7805 55.0563 61.1214C58.3062 59.9575 62.0751 60.359 64.6446 62.9075ZM55.374 65.2497C54.3353 66.7748 54.1371 68.7199 54.3783 70.5447C54.5912 71.6442 55.1538 72.6489 56.0436 73.2744C57.0789 73.8541 58.2279 74.0072 59.3718 73.6835C60.4231 73.2866 61.2113 72.5211 61.7028 71.4663C62.3892 69.7178 62.5051 67.6551 61.8275 65.8836C61.339 64.9184 60.7041 64.3827 59.7602 63.9695C58.1764 63.5228 56.4577 63.9141 55.374 65.2497Z" fill="white"/>
<path d="M45.872 62.5046C45.9436 62.5672 46.0152 62.6298 46.089 62.6943C47.2554 63.8166 47.9851 65.693 48.0835 67.3401C48.1357 69.9349 47.862 72.133 46.2709 74.2243C46.2229 74.2923 46.175 74.3604 46.1256 74.4305C44.9636 76.0046 42.9872 76.6898 41.1851 76.9694C38.5505 77.1186 36.049 76.8442 33.9365 75.003C32.5191 73.5921 31.7845 71.5626 31.6955 69.5308C31.6619 67.9508 31.8853 66.4851 32.5093 65.0386C32.5499 64.9414 32.5905 64.8443 32.6324 64.7441C33.4608 62.9538 34.968 61.7802 36.7075 61.1211C39.73 60.0386 43.3499 60.2801 45.872 62.5046ZM36.9967 65.2498C35.9855 66.8475 35.7766 68.6628 36.0304 70.5466C36.2401 71.6449 36.8068 72.6498 37.6948 73.274C38.7301 73.8537 39.8791 74.0069 41.023 73.6832C42.0743 73.2863 42.8625 72.5208 43.354 71.4659C44.0455 69.7045 44.1438 67.6689 43.4787 65.8833C42.9981 64.8907 42.2818 64.3163 41.304 63.9419C40.9268 63.8303 40.559 63.821 40.1691 63.8244C40.0451 63.8254 40.0451 63.8254 39.9185 63.8265C38.7571 63.8627 37.7476 64.287 36.9967 65.2498Z" fill="white"/>
<path d="M151.409 56.2424C151.478 56.2425 151.547 56.2426 151.618 56.2427C155.546 56.2541 155.546 56.2541 156.164 56.9089C156.187 57.0931 156.204 57.2781 156.218 57.4632C156.226 57.5777 156.235 57.6922 156.244 57.8101C156.253 57.9308 156.261 58.0515 156.27 58.1759C156.284 58.3521 156.284 58.3521 156.298 58.5319C156.346 59.1898 156.374 59.8388 156.364 60.4987C155.68 60.3463 155.008 60.1586 154.334 59.9605C153.037 59.6208 151.387 59.4889 150.181 60.182C150.113 60.2202 150.045 60.2585 149.974 60.2979C149.508 60.6026 149.23 60.9935 149.084 61.5546C149.018 62.3577 149.357 63.0267 149.821 63.6382C150.24 64.1097 150.733 64.4899 151.217 64.8832C151.728 65.3039 152.199 65.76 152.669 66.2315C153.017 66.5792 153.372 66.907 153.746 67.223C155.031 68.32 156.411 69.7733 156.663 71.5849C156.756 73.2239 156.475 74.6556 155.454 75.9336C154.107 77.4345 152.204 77.9823 150.303 78.0593C148.631 78.0989 147.034 77.9429 145.394 77.6031C145.313 77.5863 145.231 77.5694 145.148 77.552C144.763 77.4707 144.38 77.3833 143.998 77.2864C143.867 75.985 143.76 74.687 143.699 73.3798C144.056 73.4478 144.389 73.5464 144.731 73.6731C144.833 73.7099 144.934 73.7467 145.039 73.7846C145.249 73.8615 145.458 73.9387 145.668 74.0164C147.343 74.6219 149.42 74.9626 151.078 74.1189C151.613 73.7935 151.878 73.4071 152.039 72.7777C152.145 72.0784 151.949 71.5295 151.577 70.9514C151.382 70.708 151.171 70.4863 150.954 70.2651C150.896 70.205 150.838 70.1448 150.778 70.0829C150.359 69.6517 149.93 69.2378 149.483 68.8398C149.258 68.6379 149.034 68.4354 148.81 68.2327C148.75 68.1785 148.69 68.1243 148.628 68.0684C148.177 67.6591 147.736 67.2398 147.301 66.8115C147.034 66.5487 146.761 66.2987 146.479 66.055C145.544 65.1909 144.679 63.9322 144.497 62.6104C144.416 60.9935 144.599 59.6461 145.591 58.3397C147.134 56.5963 149.253 56.2309 151.409 56.2424Z" fill="white"/>
<path d="M12.4652 55.7477C12.5081 56.1891 12.5507 56.6305 12.593 57.0719C12.6075 57.222 12.622 57.372 12.6366 57.522C12.6576 57.7382 12.6783 57.9544 12.6989 58.1707C12.7177 58.3656 12.7177 58.3656 12.7369 58.5644C12.76 58.8598 12.7699 59.1469 12.7644 59.443C12.1209 59.297 11.4831 59.1321 10.8459 58.9583C9.48187 58.5909 7.72471 58.3812 6.45932 59.1568C5.98528 59.4981 5.7041 59.8319 5.48469 60.3933C5.38067 61.1398 5.59004 61.6735 5.9833 62.2938C6.52032 62.9741 7.16244 63.5119 7.82428 64.0469C8.49597 64.5958 9.10182 65.2154 9.71605 65.8338C9.90059 66.0171 10.0907 66.1922 10.2838 66.3653C11.6798 67.6493 12.9146 68.9999 13.0795 71.0439C13.1364 72.4685 12.6866 73.7579 11.8669 74.8713C10.6282 76.2719 8.79961 76.8732 7.03549 76.9931C6.66371 77.0057 6.29295 77.0098 5.92098 77.0093C5.85449 77.0094 5.788 77.0094 5.71949 77.0095C3.86486 77.0056 2.11187 76.6419 0.299165 76.2307C0.151078 74.2969 0.151078 74.2969 0 72.3241C0.486737 72.41 0.87319 72.5337 1.32131 72.7266C2.57774 73.2384 3.78537 73.5204 5.13567 73.5317C5.22496 73.5328 5.31425 73.5339 5.40625 73.535C6.33358 73.522 7.25552 73.2857 7.97774 72.6409C8.39576 72.1633 8.42073 71.6609 8.41986 71.0303C8.18698 69.4687 6.37149 68.2682 5.30383 67.304C4.86672 66.9087 4.43732 66.5053 4.01185 66.096C3.80519 65.8986 3.59545 65.706 3.38431 65.514C1.9939 64.223 0.985556 62.9245 0.81764 60.927C0.736642 59.5721 1.16259 58.3841 1.93678 57.3145C4.36762 54.4795 9.2825 54.7491 12.4652 55.7477Z" fill="white"/>
<path d="M207.669 61.5419C209.56 61.4916 211.61 61.8733 213.074 63.2044C214.278 64.4217 214.909 66.0313 215 67.7841C214.994 69.381 214.994 69.381 214.801 69.7901C211.279 69.7901 207.758 69.7901 204.13 69.7901C204.329 72.3151 204.329 72.3151 205.703 74.1673C207.099 75.1973 208.947 75.1502 210.563 74.8828C211.436 74.7152 212.292 74.474 213.14 74.1965C213.404 74.119 213.404 74.119 213.704 74.119C213.645 74.5818 213.583 75.0439 213.518 75.5058C213.496 75.663 213.476 75.8203 213.456 75.9777C213.427 76.204 213.395 76.4297 213.363 76.6555C213.345 76.7915 213.326 76.9275 213.307 77.0676C213.205 77.3921 213.205 77.3921 212.977 77.5366C212.843 77.5696 212.843 77.5696 212.706 77.6032C212.627 77.6239 212.549 77.6446 212.467 77.666C209.364 78.2803 205.544 78.594 202.768 76.7219C201.062 75.4462 200.35 73.6307 199.995 71.5178C199.968 71.293 199.951 71.0723 199.942 70.8459C199.938 70.7603 199.934 70.6747 199.93 70.5865C199.877 68.321 200.454 65.8747 201.887 64.1415C202.034 63.9811 202.184 63.8225 202.335 63.6663C202.423 63.5679 202.423 63.5679 202.513 63.4675C203.852 62.078 205.864 61.6351 207.669 61.5419ZM205.259 65.547C204.691 66.2905 204.457 67.0561 204.33 67.9952C206.535 67.9952 208.739 67.9952 211.011 67.9952C211.011 66.8636 210.921 65.9325 210.164 65.0826C209.436 64.3532 208.65 64.2374 207.67 64.2631C206.712 64.3639 205.912 64.8029 205.259 65.547Z" fill="white"/>
<path d="M165.239 58.2817C165.206 59.5361 165.173 60.7904 165.139 62.0827C166.357 62.0827 167.574 62.0827 168.829 62.0827C168.796 63.0931 168.763 64.1036 168.729 65.1446C167.512 65.1446 166.294 65.1446 165.039 65.1446C164.879 68.3986 164.879 68.3986 164.81 71.6559C164.809 71.8007 164.808 71.9454 164.806 72.0902C164.788 73.2483 164.788 73.2483 165.139 74.3303C165.377 74.5017 165.377 74.5017 165.638 74.5414C165.736 74.5763 165.835 74.6111 165.937 74.647C166.879 74.7236 167.719 74.573 168.629 74.3303C168.563 75.0398 168.462 75.7349 168.336 76.4353C168.311 76.5849 168.311 76.5849 168.285 76.7374C168.268 76.8325 168.251 76.9276 168.234 77.0255C168.219 77.1113 168.204 77.197 168.188 77.2853C168.131 77.4978 168.131 77.4978 167.931 77.7089C166.93 78.0136 165.902 78.0584 164.865 78.0653C164.699 78.0674 164.699 78.0674 164.529 78.0696C163.396 78.0631 162.211 77.9249 161.35 77.0754C160.153 75.5514 160.433 73.6289 160.536 71.7786C160.545 71.617 160.553 71.4553 160.562 71.2937C160.58 70.9573 160.599 70.6209 160.617 70.2846C160.641 69.8558 160.664 69.427 160.687 68.9982C160.705 68.6653 160.723 68.3324 160.741 67.9995C160.75 67.8414 160.758 67.6834 160.767 67.5253C160.779 67.3039 160.791 67.0825 160.803 66.8611C160.81 66.7357 160.817 66.6103 160.824 66.4812C160.855 66.0346 160.904 65.5896 160.951 65.1446C160.26 65.1446 159.569 65.1446 158.857 65.1446C158.89 64.1342 158.922 63.1238 158.956 62.0827C160.042 62.0304 160.042 62.0304 161.15 61.9771C161.216 61.0015 161.282 60.026 161.35 59.0208C161.823 58.9151 162.297 58.8097 162.771 58.705C162.932 58.6694 163.093 58.6335 163.254 58.5975C163.486 58.5456 163.718 58.4945 163.95 58.4434C164.021 58.4272 164.093 58.4111 164.167 58.3944C164.539 58.3132 164.854 58.2817 165.239 58.2817Z" fill="white"/>
<path d="M69.8052 55.5366C71.2203 55.5366 72.6353 55.5366 74.0932 55.5366C74.0519 56.6605 74.0088 57.7821 73.9301 58.9037C73.7476 61.5445 73.6604 64.1915 73.5551 66.8367C73.5331 67.3862 73.5107 67.9356 73.4883 68.485C73.3776 71.2074 73.2711 73.9294 73.1957 76.6531C71.7478 76.6531 70.2998 76.6531 68.808 76.6531C68.8333 76.2285 68.8586 75.8038 68.8847 75.3663C69.2184 69.7231 69.4934 64.0795 69.6355 58.4269C69.6409 58.2123 69.6465 57.9977 69.6521 57.7831C69.6589 57.5215 69.6654 57.2598 69.6714 56.9982C69.6744 56.8824 69.6775 56.7666 69.6806 56.6472C69.683 56.5469 69.6854 56.4465 69.6879 56.3431C69.7055 56.0645 69.7055 56.0645 69.8052 55.5366Z" fill="white"/>
<path d="M16.6535 55.5366C18.0686 55.5366 19.4836 55.5366 20.9416 55.5366C20.9162 55.9679 20.8909 56.3992 20.8648 56.8436C20.678 60.0648 20.5073 63.2861 20.3806 66.5106C20.3776 66.5875 20.3746 66.6644 20.3715 66.7436C20.2422 70.046 20.1396 73.3494 20.0441 76.6531C18.6619 76.6531 17.2798 76.6531 15.8558 76.6531C15.8558 76.0048 15.8612 75.3801 15.9107 74.7378C15.9228 74.5683 15.9349 74.3988 15.9469 74.2293C15.9534 74.1391 15.9599 74.0489 15.9665 73.956C16.1188 71.7951 16.2229 69.6321 16.3107 67.4674C16.3138 67.3909 16.317 67.3144 16.3202 67.2356C16.4775 63.3374 16.5672 59.4372 16.6535 55.5366Z" fill="white"/>
<path d="M198.646 61.7656C198.861 62.9571 198.755 64.2539 198.745 65.461C198.63 65.4443 198.514 65.4275 198.395 65.4103C197.184 65.2515 196.025 65.2164 194.987 65.9729C193.883 66.9302 193.509 68.2249 193.32 69.6803C193.289 70.0048 193.267 70.3288 193.248 70.6544C193.24 70.7784 193.233 70.9024 193.225 71.0302C193.1 73.2527 193.093 75.483 193.061 77.7086C191.679 77.7086 190.297 77.7086 188.873 77.7086C188.873 75.6512 188.873 75.6512 188.935 74.7181C188.948 74.5047 188.961 74.2913 188.974 74.0779C188.985 73.9151 188.985 73.9151 188.995 73.749C189.125 71.6906 189.232 69.6354 189.272 67.5727C189.274 67.4666 189.276 67.3605 189.278 67.2511C189.312 65.4931 189.343 63.735 189.372 61.9768C190.721 61.9768 192.07 61.9768 193.46 61.9768C193.46 62.5691 193.46 63.1614 193.46 63.7717C193.559 63.6476 193.658 63.5235 193.759 63.3956C194.87 62.0636 196.926 60.8554 198.646 61.7656Z" fill="white"/>
<path d="M120.464 78.3424C119.603 80.8574 116.733 82.8632 114.58 84.0439C114.489 84.0947 114.489 84.0947 114.396 84.1466C112.231 85.3367 109.65 86.0818 107.258 85.3303C104.903 84.5037 102.817 83.071 100.971 81.3362C100.869 81.2403 100.766 81.1449 100.663 81.0501C99.9049 80.3517 99.2316 79.6148 98.6248 78.7648C98.6248 78.7299 98.6248 78.6951 98.6248 78.6592C99.4785 78.7022 100.278 78.8569 101.108 79.0706C102.101 79.3252 103.095 79.5588 104.109 79.7018C104.19 79.7131 104.27 79.7245 104.352 79.7362C105.775 79.9207 107.197 79.9478 108.628 79.946C108.766 79.9459 108.766 79.9459 108.907 79.9458C110.408 79.943 111.892 79.901 113.384 79.715C113.531 79.6971 113.531 79.6971 113.681 79.6789C115.312 79.4709 116.898 79.0814 118.489 78.6589C118.568 78.6382 118.648 78.6174 118.729 78.596C118.878 78.5569 119.027 78.5171 119.175 78.4765C119.62 78.36 120.009 78.3241 120.464 78.3424Z" fill="#FDFD00"/>
<path d="M28.0031 60.8022C28.2278 60.8117 28.4525 60.8204 28.6772 60.8282C29.224 60.849 29.7696 60.8806 30.3154 60.921C30.1448 61.3047 29.9365 61.5678 29.661 61.8778C29.3186 62.2675 28.9912 62.6635 28.6762 63.0788C28.3549 63.5006 28.0211 63.9032 27.6728 64.2996C27.2435 64.7882 26.8408 65.293 26.4457 65.8132C26.1572 66.184 25.8519 66.5365 25.5428 66.888C25.2826 67.2077 25.0587 67.5434 24.8307 67.8894C25.5827 69.0606 26.3409 70.2258 27.1243 71.3737C27.2257 71.5225 27.3271 71.6714 27.4285 71.8203C27.647 72.1409 27.8657 72.4614 28.0845 72.7817C28.3101 73.1119 28.5352 73.4424 28.76 73.7732C28.8712 73.9368 28.9825 74.1004 29.0938 74.264C29.1473 74.3427 29.2009 74.4215 29.256 74.5027C29.6494 75.0797 30.0526 75.6478 30.4638 76.2107C30.6146 76.4416 30.6146 76.4416 30.6146 76.6528C29.9693 76.7067 29.3246 76.7434 28.6778 76.7688C28.4585 76.7793 28.2393 76.7937 28.0204 76.8121C26.5644 76.9311 26.5644 76.9311 25.9276 76.6528C25.3979 76.1549 25.119 75.4784 24.8434 74.8008C24.6799 74.4231 24.4689 74.089 24.2448 73.7493C24.1635 73.6221 24.0822 73.495 24.001 73.3678C23.3278 72.3305 22.6431 71.3016 21.9555 70.2749C21.8932 70.1815 21.8309 70.0881 21.7667 69.9919C21.6485 69.8147 21.5299 69.6377 21.4109 69.4611C21.0509 68.9209 20.7347 68.3684 20.4429 67.7838C21.0724 66.9466 21.7106 66.1173 22.3525 65.2907C22.5808 64.9961 22.8084 64.7007 23.0357 64.4052C23.0803 64.3475 23.1249 64.2899 23.1708 64.2305C23.2646 64.1091 23.358 63.9874 23.4512 63.8655C23.5519 63.7341 23.6533 63.6033 23.7557 63.4734C24.0384 63.1068 24.2794 62.7463 24.4898 62.3281C25.3654 60.6709 26.3196 60.6773 28.0031 60.8022Z" fill="white"/>
<path d="M120.258 18.8863C120.501 18.8874 120.744 18.8883 120.987 18.8892C121.577 18.8915 122.167 18.895 122.757 18.8995C122.679 19.0507 122.601 19.2018 122.522 19.3528C122.478 19.4369 122.435 19.5211 122.39 19.6078C122.213 19.9337 122.015 20.2269 121.804 20.5294C121.434 21.067 121.078 21.6115 120.732 22.166C120.18 23.0475 119.622 23.9238 119.061 24.7989C119.017 24.8682 118.973 24.9375 118.927 25.0089C118.608 25.5065 118.29 26.004 117.971 26.5014C117.879 26.6454 117.786 26.7893 117.694 26.9332C116.975 28.0546 116.975 28.0546 116.661 28.545C116.623 28.6043 116.585 28.6636 116.546 28.7247C116.444 28.8839 116.341 29.0431 116.239 29.2024C116.118 29.3926 115.997 29.5834 115.877 29.7745C114.393 29.222 113.231 27.5981 112.572 26.1458C112.245 25.3137 112.227 24.5301 112.237 23.6375C112.235 23.4997 112.234 23.3618 112.232 23.2197C112.236 22.0892 112.444 21.295 113.183 20.4667C113.776 19.8919 114.437 19.5931 115.197 19.3482C115.262 19.3272 115.326 19.3063 115.392 19.2846C116.986 18.8097 118.619 18.8738 120.258 18.8863Z" fill="#FCFCFC"/>
<path d="M39.4898 41.3882C40.3454 41.3882 41.201 41.3882 42.0826 41.3882C42.0826 42.9103 42.0826 42.9103 42.0327 43.4866C41.9738 44.2671 41.9735 45.0402 41.9828 45.8226C42.0548 45.7443 42.1268 45.6659 42.201 45.5851C43.0833 44.6716 44.0155 44.4091 45.2238 44.3973C46.3096 44.4113 47.3121 44.5868 48.1138 45.4214C48.6543 46.0995 48.6822 46.7905 48.6798 47.632C48.6796 47.729 48.6794 47.826 48.6792 47.9259C48.6705 49.1564 48.5914 50.3825 48.5146 51.6099C48.5001 51.849 48.4857 52.0882 48.4714 52.3273C48.4367 52.9043 48.4008 53.4812 48.365 54.0581C47.5094 54.0581 46.6538 54.0581 45.7723 54.0581C45.7723 52.8739 45.7723 52.8739 45.8159 52.2731C45.8249 52.1432 45.834 52.0133 45.8433 51.8794C45.8575 51.6774 45.8575 51.6774 45.872 51.4713C45.9326 50.5592 45.9931 49.6473 46.0029 48.7328C46.0054 48.5239 46.0054 48.5239 46.0079 48.3109C45.9545 47.7552 45.8155 47.3427 45.4295 46.9445C44.8952 46.5857 44.2938 46.6047 43.6781 46.6673C43.1643 46.8135 42.7048 47.051 42.3872 47.5206C41.4061 49.4096 41.6355 51.9715 41.5839 54.0581C40.7283 54.0581 39.8727 54.0581 38.9912 54.0581C38.9912 53.2643 38.999 52.49 39.0496 51.701C39.0623 51.4907 39.0749 51.2803 39.0875 51.0699C39.0975 50.9053 39.0975 50.9053 39.1077 50.7373C39.2956 47.6227 39.3982 44.5074 39.4898 41.3882Z" fill="white"/>
<path d="M112.686 13.3035C112.807 13.3401 112.807 13.3401 112.931 13.3774C115.196 14.0643 117.628 15.1486 119.267 16.9989C119.267 17.0686 119.267 17.1383 119.267 17.2101C112.356 17.2101 105.446 17.2101 98.3256 17.2101C99.6303 15.138 102.348 14.1232 104.508 13.4091C104.589 13.3807 104.67 13.3522 104.753 13.3229C107.131 12.5064 110.297 12.5309 112.686 13.3035Z" fill="#FDFD00"/>
<path d="M97.1539 18.5494C97.3274 18.5496 97.3274 18.5496 97.5044 18.5498C98.8186 18.5647 100.114 18.7218 101.417 18.8992C101.138 19.442 100.826 19.9278 100.47 20.4169C100.045 21.0076 99.6315 21.6041 99.2293 22.2118C98.6579 23.0747 98.0765 23.9295 97.4925 24.7828C97.328 25.0235 97.1641 25.2646 97.0004 25.5059C96.2906 26.5512 95.5687 27.5859 94.8353 28.6128C93.8654 28.3939 93.0731 27.3367 92.5417 26.5011C92.0167 25.5377 91.9188 24.8068 91.906 23.7032C91.9023 23.5848 91.8986 23.4664 91.8947 23.3444C91.8821 22.0583 92.3001 20.9912 93.1401 20.0606C94.2884 18.9208 95.6172 18.5419 97.1539 18.5494Z" fill="#FCFCFC"/>
<path d="M57.8421 45.225C58.5202 45.8316 58.8569 46.5232 59.135 47.4063C59.135 48.0683 59.135 48.7303 59.135 49.4124C57.0288 49.4472 54.9227 49.4821 52.7528 49.518C52.854 50.8369 52.854 50.8369 53.5318 51.821C54.5378 52.5519 55.5189 52.5352 56.6968 52.3349C57.111 52.2485 57.5138 52.1377 57.9177 52.0082C58.1377 51.9464 58.1377 51.9464 58.4369 51.9464C58.3382 52.6084 58.2395 53.2704 58.1377 53.9524C56.0519 54.4986 53.7745 54.7166 51.8366 53.5499C50.9408 52.8122 50.3993 51.9464 50.1881 50.7462C50.0094 48.9751 50.2739 47.2793 51.3317 45.8358C52.8398 44.1221 56.0764 43.8491 57.8421 45.225ZM53.563 46.6342C53.1947 47.0092 52.9939 47.3098 52.8525 47.8286C52.8525 47.968 52.8525 48.1074 52.8525 48.251C54.1359 48.251 55.4193 48.251 56.7416 48.251C56.7416 47.3813 56.7268 47.0882 56.1807 46.4825C55.3401 45.8034 54.3399 45.9488 53.563 46.6342Z" fill="white"/>
<path d="M28.9726 41.3751C29.0664 41.3754 29.1602 41.3758 29.2569 41.3762C29.4042 41.3762 29.4042 41.3762 29.5546 41.3762C29.881 41.3762 30.2075 41.3771 30.5339 41.3779C30.7596 41.3781 30.9853 41.3782 31.211 41.3783C31.8062 41.3787 32.4015 41.3798 32.9968 41.3809C33.6037 41.382 34.2106 41.3825 34.8175 41.383C36.0093 41.3842 37.2011 41.386 38.3929 41.3882C38.36 42.1199 38.3271 42.8516 38.2931 43.6054C37.0755 43.5706 35.8579 43.5357 34.6034 43.4998C34.5902 43.9054 34.577 44.311 34.5633 44.7289C34.5027 46.5473 34.4305 48.3652 34.3582 50.1831C34.3407 50.6221 34.3234 51.0612 34.306 51.5002C34.2723 52.3528 34.2385 53.2055 34.2046 54.0581C33.2831 54.0581 32.3617 54.0581 31.4123 54.0581C31.4123 52.8707 31.4123 52.8707 31.4382 52.4304C31.4467 52.2813 31.4467 52.2813 31.4554 52.1292C31.4616 52.0249 31.4679 51.9207 31.4743 51.8132C31.4874 51.5831 31.5006 51.353 31.5137 51.1229C31.5206 51.004 31.5274 50.8851 31.5345 50.7626C31.6417 48.9053 31.7423 47.0496 31.7822 45.1891C31.7862 45.0133 31.7862 45.0133 31.7902 44.8341C31.7928 44.6866 31.7928 44.6866 31.7955 44.5362C31.8139 44.1889 31.8645 43.8442 31.911 43.4998C30.6934 43.5347 29.4758 43.5695 28.2213 43.6054C28.2192 43.2592 28.2171 42.9129 28.215 42.5562C28.2141 42.4469 28.2132 42.3376 28.2123 42.225C28.2119 42.0968 28.2119 42.0968 28.2115 41.966C28.211 41.8781 28.2105 41.7902 28.2099 41.6996C28.2359 41.2276 28.6119 41.3757 28.9726 41.3751Z" fill="white"/>
<path d="M115.478 36.1094C115.621 36.1572 115.765 36.2057 115.908 36.2546C115.988 36.2815 116.067 36.3084 116.15 36.3362C116.375 36.4261 116.375 36.4261 116.674 36.6373C116.651 37.7463 115.879 38.603 115.168 39.345C113.587 40.919 111.616 41.7644 109.459 41.7267C108.176 41.6818 108.176 41.6818 107.999 41.4941C107.973 41.0274 107.961 40.6326 108.198 40.2271C108.579 40.099 108.953 40.1181 109.348 40.1285C111.028 40.1709 112.413 39.8006 113.714 38.6104C114.444 37.8711 115.024 37.065 115.478 36.1094Z" fill="#1B1710"/>
</g>
<defs>
<clipPath id="clip0_1_781">
<rect width="215" height="87" fill="white"/>
</clipPath>
</defs>
</svg>
